<svg id="svg" version="1.1" xmlns="http://www.w3.org/2000/svg" xmlns:xlink="http://www.w3.org/1999/xlink" width="400" height="280.19323671497585" viewBox="0, 0, 400,280.19323671497585"><g id="svgg"><path id="path0" d="M192.432 14.311 C 172.127 16.046,151.603 28.314,139.744 45.805 C 137.634 48.916,136.596 51.906,137.706 51.671 C 140.922 50.991,141.890 50.938,142.837 51.390 C 144.302 52.088,145.676 51.988,146.843 51.098 C 147.625 50.501,148.108 50.350,149.097 50.393 C 150.723 50.464,151.397 49.999,152.562 48.006 C 154.026 45.498,155.208 44.898,161.037 43.701 C 166.053 42.671,168.933 42.668,172.892 43.690 C 177.296 44.827,178.636 44.807,183.617 43.533 C 190.511 41.768,196.149 41.983,199.565 44.139 C 200.168 44.520,201.269 44.980,202.012 45.161 C 204.359 45.734,204.632 46.435,203.206 48.235 C 202.074 49.664,201.861 50.516,202.033 52.922 C 202.176 54.911,202.164 54.952,200.579 58.163 C 198.810 61.746,198.706 61.846,195.515 63.007 C 191.669 64.407,189.012 66.324,187.356 68.893 C 184.864 72.760,181.476 70.318,179.665 63.350 C 179.324 62.039,178.799 60.024,178.499 58.871 C 177.512 55.087,176.659 54.310,172.811 53.687 C 170.941 53.384,170.163 53.114,169.404 52.506 C 168.863 52.072,168.116 51.472,167.744 51.173 C 166.789 50.405,165.398 51.090,164.256 52.891 C 162.766 55.241,163.374 56.365,167.300 58.517 C 173.119 61.707,174.751 64.759,172.548 68.330 C 171.225 70.473,171.133 70.233,174.509 73.497 C 179.770 78.584,180.843 82.294,177.295 83.132 C 176.833 83.241,175.647 83.754,174.660 84.272 C 173.673 84.790,172.628 85.214,172.338 85.214 C 170.636 85.214,168.926 86.530,166.694 89.559 C 165.899 90.638,164.717 92.181,164.067 92.988 C 163.416 93.795,162.735 94.955,162.551 95.566 C 162.130 96.974,161.832 97.075,160.077 96.408 C 156.154 94.917,152.207 96.340,152.207 99.245 C 152.207 101.096,153.242 101.990,155.500 102.090 L 157.361 102.172 158.871 104.135 C 162.555 108.925,162.214 110.479,158.066 107.800 C 156.490 106.783,154.629 105.908,152.438 105.155 C 148.433 103.778,147.844 103.477,146.601 102.168 C 146.062 101.600,144.926 100.656,144.078 100.071 C 142.249 98.809,141.457 97.977,139.943 95.725 C 139.320 94.800,138.409 93.665,137.917 93.203 C 135.420 90.854,134.635 89.100,134.299 85.120 L 134.073 82.440 131.618 78.771 C 128.876 74.672,128.800 74.642,127.928 77.298 C 127.259 79.337,127.151 92.729,127.772 96.706 C 130.737 115.710,140.568 132.488,155.531 144.078 C 159.589 147.222,163.367 149.577,165.045 150.009 C 165.707 150.179,167.007 150.808,167.933 151.406 C 170.402 153.002,172.495 154.003,175.691 155.116 C 196.355 162.308,219.907 159.757,237.939 148.373 C 251.277 139.952,263.175 125.795,266.990 113.805 C 267.260 112.957,267.916 111.259,268.449 110.031 C 269.458 107.704,269.857 105.672,269.547 104.438 C 269.049 102.452,266.187 105.260,265.773 108.141 C 265.299 111.442,262.809 110.129,261.109 105.682 C 258.932 99.984,254.051 97.673,251.921 101.331 C 250.818 103.227,249.883 104.181,248.182 105.150 C 245.996 106.395,245.722 106.803,245.944 108.478 C 246.212 110.498,245.444 112.056,242.904 114.646 C 239.794 117.817,239.601 118.469,240.388 123.125 C 240.659 124.726,240.361 125.402,238.680 127.007 C 237.378 128.250,237.046 128.778,236.575 130.361 C 234.731 136.554,228.858 140.515,225.792 137.635 C 223.759 135.725,221.706 128.635,221.785 123.797 L 221.845 120.112 220.160 116.889 C 217.925 112.612,217.397 112.294,212.893 112.494 C 208.792 112.676,208.081 112.420,205.704 109.900 C 201.713 105.671,201.888 102.533,206.466 96.251 C 208.960 92.829,209.263 92.116,208.851 90.632 C 208.127 88.027,208.488 86.690,210.231 85.510 C 212.646 83.877,212.508 82.133,209.741 79.277 C 208.260 77.749,208.220 76.873,209.540 74.879 C 210.734 73.075,212.033 73.137,213.221 75.056 C 214.837 77.666,216.428 78.292,218.028 76.945 C 219.244 75.922,219.365 75.043,218.513 73.415 C 217.250 70.998,217.704 69.187,220.044 67.306 C 220.675 66.799,221.775 65.506,222.489 64.433 C 225.481 59.933,230.292 58.997,236.440 61.718 L 239.804 63.207 242.887 63.127 C 245.543 63.059,246.365 62.913,248.817 62.077 C 250.383 61.544,252.149 61.104,252.742 61.101 C 254.836 61.088,255.901 60.647,257.505 59.130 L 259.058 57.662 261.954 57.826 C 266.731 58.097,266.684 56.767,261.624 48.568 C 246.996 24.865,220.786 11.888,192.432 14.311 M252.434 46.666 C 252.905 47.025,252.922 47.119,252.558 47.362 C 251.498 48.072,250.021 47.364,251.027 46.629 C 251.675 46.155,251.767 46.157,252.434 46.666 M229.853 47.740 C 230.803 48.227,230.849 50.546,229.924 51.296 C 229.392 51.726,226.440 52.191,224.254 52.189 C 223.462 52.189,222.004 50.730,222.004 49.939 C 222.004 48.228,227.695 46.633,229.853 47.740 M136.120 53.702 C 135.823 54.475,135.924 54.750,136.370 54.380 C 136.829 53.999,136.941 53.259,136.540 53.259 C 136.402 53.259,136.213 53.458,136.120 53.702 M252.714 54.685 C 252.817 54.854,252.460 55.453,251.919 56.017 C 251.378 56.581,250.667 57.579,250.339 58.234 C 249.759 59.393,249.370 59.633,248.753 59.211 C 247.400 58.285,248.947 55.689,251.445 54.692 C 252.362 54.326,252.491 54.325,252.714 54.685 M147.581 55.607 C 146.926 56.087,147.637 57.463,148.540 57.463 C 149.417 57.463,149.775 55.703,148.961 55.391 C 148.330 55.149,148.175 55.173,147.581 55.607 M133.294 58.851 C 132.503 60.381,132.872 61.458,133.956 60.781 C 134.723 60.303,135.078 59.407,134.799 58.655 C 134.476 57.779,133.803 57.867,133.294 58.851 M203.242 65.322 C 204.438 65.962,203.466 67.835,201.938 67.835 C 201.266 67.835,199.860 66.840,199.860 66.365 C 199.860 65.272,201.947 64.629,203.242 65.322 M165.652 99.038 C 169.003 100.675,170.404 103.311,167.905 103.276 C 162.677 103.201,160.679 101.671,162.312 98.992 C 162.961 97.927,163.390 97.933,165.652 99.038 M173.589 107.917 C 174.171 108.089,175.287 108.797,176.068 109.491 C 176.849 110.185,178.139 111.048,178.933 111.409 C 179.750 111.780,181.173 112.845,182.205 113.858 C 183.744 115.368,184.483 115.841,186.902 116.862 C 191.542 118.819,191.802 119.406,190.043 123.937 C 188.349 128.300,187.805 129.247,186.405 130.257 C 185.711 130.758,184.799 131.431,184.378 131.753 C 183.957 132.076,183.107 133.312,182.488 134.501 C 181.506 136.389,180.872 137.115,177.472 140.250 C 173.892 143.551,173.498 144.014,172.553 146.028 C 171.263 148.777,170.814 149.186,168.909 149.344 C 165.992 149.586,165.655 146.610,167.499 136.873 C 168.948 129.223,168.890 128.747,166.133 125.586 C 162.549 121.476,161.454 117.861,162.842 114.713 C 163.485 113.253,163.525 112.016,162.985 110.235 C 162.785 109.573,162.886 109.510,166.783 107.876 C 168.172 107.293,171.543 107.314,173.589 107.917 M245.394 124.239 C 246.330 125.575,245.372 130.176,243.967 131.097 C 242.447 132.093,241.564 130.795,241.508 127.483 C 241.469 125.157,244.352 122.751,245.394 124.239 M81.570 200.748 C 66.683 201.696,57.699 214.302,59.102 232.277 C 60.475 249.864,73.816 259.817,90.576 255.759 C 96.664 254.285,100.926 250.758,104.119 244.553 C 106.481 239.963,106.061 238.997,100.966 237.299 C 96.309 235.747,95.577 235.935,94.167 239.045 C 89.227 249.939,75.493 249.335,71.773 238.060 C 70.523 234.271,70.296 225.132,71.339 220.603 C 73.987 209.106,87.572 206.428,93.741 216.186 C 95.494 218.959,95.783 219.020,101.182 217.774 C 105.787 216.710,106.219 215.673,103.912 211.230 C 99.962 203.625,92.365 200.061,81.570 200.748 M261.107 204.465 C 255.159 207.330,253.705 208.970,253.686 212.838 C 253.676 214.756,253.101 215.691,251.569 216.276 C 249.566 217.041,249.194 217.715,249.194 220.578 C 249.194 223.426,249.457 223.944,251.404 224.931 C 253.655 226.072,253.519 225.352,253.711 237.113 C 253.816 243.581,254.010 248.194,254.212 249.054 C 255.468 254.399,259.004 256.696,265.545 256.418 C 270.611 256.202,272.181 255.230,272.178 252.310 C 272.174 248.754,271.325 247.514,268.886 247.508 C 264.968 247.498,264.774 246.991,264.660 236.440 C 264.546 225.943,264.767 225.092,267.610 225.086 C 270.636 225.080,271.619 223.967,271.619 220.543 C 271.619 217.256,271.057 216.563,268.139 216.250 C 264.859 215.899,264.779 215.753,264.611 209.810 C 264.433 203.521,264.105 203.021,261.107 204.465 M130.074 215.588 C 121.945 216.823,116.392 221.545,113.634 229.573 C 112.660 232.407,112.862 240.514,113.985 243.661 C 120.500 261.916,147.870 260.549,152.644 241.731 C 156.471 226.643,144.974 213.326,130.074 215.588 M225.228 216.123 C 224.303 216.417,222.789 217.121,221.864 217.689 C 218.404 219.811,218.125 219.827,216.981 217.976 C 216.167 216.660,215.092 216.295,212.067 216.309 C 206.926 216.333,207.288 214.837,207.288 236.035 C 207.288 257.446,206.795 255.641,212.645 255.641 C 217.996 255.641,217.778 256.027,217.798 246.531 C 217.834 230.090,218.466 227.050,222.278 224.977 C 225.568 223.189,229.333 223.807,230.982 226.407 C 232.238 228.387,232.349 229.543,232.487 242.046 C 232.558 248.521,232.703 254.045,232.810 254.320 C 233.625 256.424,242.353 256.169,242.953 254.024 C 243.444 252.271,243.195 226.473,242.669 224.556 C 240.726 217.474,232.895 213.688,225.228 216.123 M293.964 215.986 C 293.381 216.200,292.177 216.885,291.289 217.508 C 289.299 218.903,289.206 218.904,287.704 217.519 L 286.488 216.398 283.133 216.398 C 279.992 216.398,279.729 216.441,278.993 217.074 L 278.206 217.751 278.130 235.833 L 278.054 253.914 278.736 254.708 L 279.419 255.501 283.360 255.501 C 289.044 255.501,288.534 256.514,288.755 244.772 C 289.081 227.417,290.100 225.027,296.983 225.488 C 300.355 225.714,300.595 225.594,301.983 222.980 C 303.758 219.638,304.389 220.344,307.884 229.583 C 309.252 233.200,311.507 239.124,312.894 242.747 C 317.535 254.868,317.743 255.656,316.858 257.773 C 315.406 261.248,313.520 262.602,309.686 262.919 C 305.953 263.229,305.216 264.330,306.120 268.251 C 306.643 270.520,307.848 271.293,311.227 271.527 C 319.925 272.128,324.697 268.451,328.201 258.444 C 329.718 254.113,332.453 246.612,340.035 225.990 C 343.556 216.410,343.524 216.288,337.455 216.288 C 332.242 216.289,332.802 215.534,328.530 228.311 C 323.253 244.091,323.676 244.091,318.318 228.308 C 313.881 215.243,315.153 216.584,307.002 216.373 C 303.387 216.280,300.207 216.068,299.651 215.883 C 298.343 215.448,295.279 215.503,293.964 215.986 M163.576 216.377 C 160.871 216.941,160.826 217.228,160.966 232.936 C 161.087 246.450,161.134 246.892,162.848 250.433 C 165.845 256.624,175.474 258.436,182.621 254.154 C 185.744 252.282,186.228 252.262,187.108 253.963 C 188.117 255.915,194.420 256.446,196.140 254.724 L 196.917 253.947 196.917 236.196 C 196.917 214.585,197.375 216.250,191.443 216.297 C 185.944 216.341,186.163 215.770,186.032 230.413 C 185.922 242.769,185.845 243.345,184.028 245.468 C 181.350 248.596,176.104 249.035,173.590 246.340 C 172.058 244.698,171.999 244.156,171.902 230.974 C 171.807 217.984,171.757 217.506,170.427 216.818 C 169.504 216.341,165.108 216.058,163.576 216.377 M136.289 224.963 C 144.218 227.665,144.566 243.125,136.783 246.886 C 129.012 250.642,121.909 242.152,124.299 231.964 C 125.679 226.082,130.799 223.093,136.289 224.963 " stroke="none" fill="#3387c1" fill-rule="evenodd"></path><path id="path1" d="M0.000 140.154 L 0.000 280.308 200.000 280.308 L 400.000 280.308 400.000 140.154 L 400.000 0.000 200.000 0.000 L 0.000 0.000 0.000 140.154 M206.844 14.303 C 228.799 16.247,249.774 29.367,261.624 48.568 C 266.684 56.767,266.731 58.097,261.954 57.826 L 259.058 57.662 257.505 59.130 C 255.901 60.647,254.836 61.088,252.742 61.101 C 252.149 61.104,250.383 61.544,248.817 62.077 C 246.365 62.913,245.543 63.059,242.887 63.127 L 239.804 63.207 236.440 61.718 C 230.292 58.997,225.481 59.933,222.489 64.433 C 221.775 65.506,220.675 66.799,220.044 67.306 C 217.704 69.187,217.250 70.998,218.513 73.415 C 219.365 75.043,219.244 75.922,218.028 76.945 C 216.428 78.292,214.837 77.666,213.221 75.056 C 212.033 73.137,210.734 73.075,209.540 74.879 C 208.220 76.873,208.260 77.749,209.741 79.277 C 212.508 82.133,212.646 83.877,210.231 85.510 C 208.488 86.690,208.127 88.027,208.851 90.632 C 209.263 92.116,208.960 92.829,206.466 96.251 C 201.888 102.533,201.713 105.671,205.704 109.900 C 208.081 112.420,208.792 112.676,212.893 112.494 C 217.397 112.294,217.925 112.612,220.160 116.889 L 221.845 120.112 221.785 123.797 C 221.706 128.635,223.759 135.725,225.792 137.635 C 228.858 140.515,234.731 136.554,236.575 130.361 C 237.046 128.778,237.378 128.250,238.680 127.007 C 240.361 125.402,240.659 124.726,240.388 123.125 C 239.601 118.469,239.794 117.817,242.904 114.646 C 245.444 112.056,246.212 110.498,245.944 108.478 C 245.722 106.803,245.996 106.395,248.182 105.150 C 249.883 104.181,250.818 103.227,251.921 101.331 C 254.051 97.673,258.932 99.984,261.109 105.682 C 262.809 110.129,265.299 111.442,265.773 108.141 C 266.187 105.260,269.049 102.452,269.547 104.438 C 269.857 105.672,269.458 107.704,268.449 110.031 C 267.916 111.259,267.260 112.957,266.990 113.805 C 266.191 116.318,264.016 120.703,261.627 124.619 C 243.944 153.608,208.002 166.362,175.691 155.116 C 172.495 154.003,170.402 153.002,167.933 151.406 C 167.007 150.808,165.707 150.179,165.045 150.009 C 163.367 149.577,159.589 147.222,155.531 144.078 C 140.568 132.488,130.737 115.710,127.772 96.706 C 127.151 92.729,127.259 79.337,127.928 77.298 C 128.800 74.642,128.876 74.672,131.618 78.771 L 134.073 82.440 134.299 85.120 C 134.635 89.100,135.420 90.854,137.917 93.203 C 138.409 93.665,139.320 94.800,139.943 95.725 C 141.457 97.977,142.249 98.809,144.078 100.071 C 144.926 100.656,146.062 101.600,146.601 102.168 C 147.844 103.477,148.433 103.778,152.438 105.155 C 154.629 105.908,156.490 106.783,158.066 107.800 C 162.214 110.479,162.555 108.925,158.871 104.135 L 157.361 102.172 155.500 102.090 C 153.242 101.990,152.207 101.096,152.207 99.245 C 152.207 96.340,156.154 94.917,160.077 96.408 C 161.832 97.075,162.130 96.974,162.551 95.566 C 162.735 94.955,163.416 93.795,164.067 92.988 C 164.717 92.181,165.899 90.638,166.694 89.559 C 168.926 86.530,170.636 85.214,172.338 85.214 C 172.628 85.214,173.673 84.790,174.660 84.272 C 175.647 83.754,176.833 83.241,177.295 83.132 C 180.843 82.294,179.770 78.584,174.509 73.497 C 171.133 70.233,171.225 70.473,172.548 68.330 C 174.751 64.759,173.119 61.707,167.300 58.517 C 163.374 56.365,162.766 55.241,164.256 52.891 C 165.398 51.090,166.789 50.405,167.744 51.173 C 168.116 51.472,168.863 52.072,169.404 52.506 C 170.163 53.114,170.941 53.384,172.811 53.687 C 176.659 54.310,177.512 55.087,178.499 58.871 C 178.799 60.024,179.324 62.039,179.665 63.350 C 181.476 70.318,184.864 72.760,187.356 68.893 C 189.012 66.324,191.669 64.407,195.515 63.007 C 198.706 61.846,198.810 61.746,200.579 58.163 C 202.164 54.952,202.176 54.911,202.033 52.922 C 201.861 50.516,202.074 49.664,203.206 48.235 C 204.632 46.435,204.359 45.734,202.012 45.161 C 201.269 44.980,200.168 44.520,199.565 44.139 C 196.149 41.983,190.511 41.768,183.617 43.533 C 178.636 44.807,177.296 44.827,172.892 43.690 C 168.933 42.668,166.053 42.671,161.037 43.701 C 155.208 44.898,154.026 45.498,152.562 48.006 C 151.397 49.999,150.723 50.464,149.097 50.393 C 148.108 50.350,147.625 50.501,146.843 51.098 C 145.676 51.988,144.302 52.088,142.837 51.390 C 141.890 50.938,140.922 50.991,137.706 51.671 C 136.596 51.906,137.634 48.916,139.744 45.805 C 154.590 23.907,180.091 11.936,206.844 14.303 M251.027 46.629 C 250.021 47.364,251.498 48.072,252.558 47.362 C 252.922 47.119,252.905 47.025,252.434 46.666 C 251.767 46.157,251.675 46.155,251.027 46.629 M224.958 47.823 C 222.115 48.510,221.359 49.725,222.783 51.318 C 223.636 52.273,223.805 52.299,227.141 51.982 C 229.949 51.714,230.506 51.301,230.533 49.459 C 230.565 47.363,228.890 46.872,224.958 47.823 M136.790 53.645 C 136.790 53.857,136.601 54.188,136.370 54.380 C 135.924 54.750,135.823 54.475,136.120 53.702 C 136.329 53.157,136.790 53.117,136.790 53.645 M251.445 54.692 C 248.947 55.689,247.400 58.285,248.753 59.211 C 249.370 59.633,249.759 59.393,250.339 58.234 C 250.667 57.579,251.378 56.581,251.919 56.017 C 253.185 54.696,252.966 54.085,251.445 54.692 M148.961 55.391 C 149.775 55.703,149.417 57.463,148.540 57.463 C 147.637 57.463,146.926 56.087,147.581 55.607 C 148.175 55.173,148.330 55.149,148.961 55.391 M134.799 58.655 C 135.078 59.407,134.723 60.303,133.956 60.781 C 132.872 61.458,132.503 60.381,133.294 58.851 C 133.803 57.867,134.476 57.779,134.799 58.655 M200.324 65.544 C 199.686 66.249,199.739 66.578,200.598 67.254 C 201.887 68.267,203.784 67.691,203.784 66.287 C 203.784 65.051,201.261 64.509,200.324 65.544 M162.312 98.992 C 160.971 101.191,161.733 102.371,164.858 102.935 C 169.406 103.756,170.484 103.057,168.128 100.815 C 165.616 98.424,163.133 97.646,162.312 98.992 M166.783 107.876 C 162.886 109.510,162.785 109.573,162.985 110.235 C 163.525 112.016,163.485 113.253,162.842 114.713 C 161.454 117.861,162.549 121.476,166.133 125.586 C 168.890 128.747,168.948 129.223,167.499 136.873 C 165.655 146.610,165.992 149.586,168.909 149.344 C 170.814 149.186,171.263 148.777,172.553 146.028 C 173.498 144.014,173.892 143.551,177.472 140.250 C 180.872 137.115,181.506 136.389,182.488 134.501 C 183.107 133.312,183.957 132.076,184.378 131.753 C 184.799 131.431,185.711 130.758,186.405 130.257 C 187.805 129.247,188.349 128.300,190.043 123.937 C 191.802 119.406,191.542 118.819,186.902 116.862 C 184.483 115.841,183.744 115.368,182.205 113.858 C 181.173 112.845,179.750 111.780,178.933 111.409 C 178.139 111.048,176.849 110.185,176.068 109.491 C 173.849 107.520,169.454 106.756,166.783 107.876 M242.735 124.890 C 241.394 126.257,241.214 127.147,241.733 129.866 C 242.209 132.356,244.264 131.791,245.240 128.901 C 246.718 124.524,245.309 122.267,242.735 124.890 M90.909 201.236 C 96.305 202.502,101.421 206.435,103.912 211.230 C 106.219 215.673,105.787 216.710,101.182 217.774 C 95.783 219.020,95.494 218.959,93.741 216.186 C 87.572 206.428,73.987 209.106,71.339 220.603 C 70.296 225.132,70.523 234.271,71.773 238.060 C 75.493 249.335,89.227 249.939,94.167 239.045 C 95.577 235.935,96.309 235.747,100.966 237.299 C 106.061 238.997,106.481 239.963,104.119 244.553 C 100.926 250.758,96.664 254.285,90.576 255.759 C 69.227 260.929,54.087 242.561,60.113 218.803 C 63.472 205.565,76.848 197.934,90.909 201.236 M263.809 204.320 C 264.449 204.837,264.476 205.022,264.611 209.810 C 264.779 215.753,264.859 215.899,268.139 216.250 C 271.057 216.563,271.619 217.256,271.619 220.543 C 271.619 223.967,270.636 225.080,267.610 225.086 C 264.767 225.092,264.546 225.943,264.660 236.440 C 264.774 246.991,264.968 247.498,268.886 247.508 C 272.930 247.518,273.725 254.198,269.872 255.790 C 266.521 257.175,259.933 256.471,257.299 254.447 C 254.349 252.181,253.923 250.124,253.711 237.113 C 253.519 225.352,253.655 226.072,251.404 224.931 C 249.457 223.944,249.194 223.426,249.194 220.578 C 249.194 217.715,249.566 217.041,251.569 216.276 C 253.101 215.691,253.676 214.756,253.686 212.838 C 253.702 209.521,254.373 208.403,257.493 206.494 C 261.872 203.814,262.793 203.497,263.809 204.320 M138.684 216.136 C 158.438 221.188,158.280 250.790,138.472 255.934 C 124.655 259.523,113.113 250.525,113.107 236.160 C 113.100 221.524,124.588 212.531,138.684 216.136 M234.077 216.009 C 238.784 217.406,241.429 220.036,242.669 224.556 C 243.195 226.473,243.444 252.271,242.953 254.024 C 242.353 256.169,233.625 256.424,232.810 254.320 C 232.703 254.045,232.558 248.521,232.487 242.046 C 232.349 229.543,232.238 228.387,230.982 226.407 C 229.333 223.807,225.568 223.189,222.278 224.977 C 218.466 227.050,217.834 230.090,217.798 246.531 C 217.778 256.027,217.996 255.641,212.645 255.641 C 206.795 255.641,207.288 257.446,207.288 236.035 C 207.288 214.837,206.926 216.333,212.067 216.309 C 215.092 216.295,216.167 216.660,216.981 217.976 C 218.125 219.827,218.404 219.811,221.864 217.689 C 225.247 215.614,230.370 214.909,234.077 216.009 M299.651 215.883 C 300.207 216.068,303.387 216.280,307.002 216.373 C 315.153 216.584,313.881 215.243,318.318 228.308 C 323.676 244.091,323.253 244.091,328.530 228.311 C 332.802 215.534,332.242 216.289,337.455 216.288 C 343.524 216.288,343.556 216.410,340.035 225.990 C 332.453 246.612,329.718 254.113,328.201 258.444 C 324.697 268.451,319.925 272.128,311.227 271.527 C 307.848 271.293,306.643 270.520,306.120 268.251 C 305.216 264.330,305.953 263.229,309.686 262.919 C 313.520 262.602,315.406 261.248,316.858 257.773 C 317.743 255.656,317.535 254.868,312.894 242.747 C 311.507 239.124,309.252 233.200,307.884 229.583 C 304.389 220.344,303.758 219.638,301.983 222.980 C 300.595 225.594,300.355 225.714,296.983 225.488 C 290.100 225.027,289.081 227.417,288.755 244.772 C 288.534 256.514,289.044 255.501,283.360 255.501 L 279.419 255.501 278.736 254.708 L 278.054 253.914 278.130 235.833 L 278.206 217.751 278.993 217.074 C 279.729 216.441,279.992 216.398,283.133 216.398 L 286.488 216.398 287.704 217.519 C 289.206 218.904,289.299 218.903,291.289 217.508 C 293.964 215.632,297.077 215.027,299.651 215.883 M170.427 216.818 C 171.757 217.506,171.807 217.984,171.902 230.974 C 171.999 244.156,172.058 244.698,173.590 246.340 C 176.104 249.035,181.350 248.596,184.028 245.468 C 185.845 243.345,185.922 242.769,186.032 230.413 C 186.163 215.770,185.944 216.341,191.443 216.297 C 197.375 216.250,196.917 214.585,196.917 236.196 L 196.917 253.947 196.140 254.724 C 194.420 256.446,188.117 255.915,187.108 253.963 C 186.228 252.262,185.744 252.282,182.621 254.154 C 175.474 258.436,165.845 256.624,162.848 250.433 C 161.134 246.892,161.087 246.450,160.966 232.936 C 160.826 217.228,160.871 216.941,163.576 216.377 C 165.108 216.058,169.504 216.341,170.427 216.818 M130.474 224.799 C 121.376 227.769,121.629 244.729,130.811 247.398 C 138.030 249.496,143.856 241.992,142.148 232.796 C 140.998 226.602,135.818 223.054,130.474 224.799 " stroke="none" fill="#fbfbfb" fill-rule="evenodd"></path></g></svg>