<svg id="svg" version="1.1" xmlns="http://www.w3.org/2000/svg" xmlns:xlink="http://www.w3.org/1999/xlink" width="400" height="270.44917257683215" viewBox="0, 0, 400,270.44917257683215"><g id="svgg"><path id="path0" d="M188.506 16.411 C 130.104 22.397,104.947 92.392,146.450 133.421 C 188.529 175.019,260.368 146.237,262.779 86.815 C 264.415 46.502,228.361 12.326,188.506 16.411 M199.236 43.651 C 199.895 44.217,200.011 44.551,200.154 46.288 C 200.417 49.496,200.430 121.695,200.168 123.313 C 199.759 125.831,199.328 126.031,194.310 126.031 L 190.137 126.031 189.254 125.242 L 188.371 124.453 188.371 84.730 C 188.371 40.939,188.256 43.954,189.941 43.275 C 191.428 42.676,198.433 42.959,199.236 43.651 M221.126 68.087 C 222.334 68.757,222.325 68.521,222.249 97.288 L 222.177 124.664 221.562 125.280 C 220.553 126.289,212.472 126.381,211.327 125.396 L 210.548 124.726 210.476 97.245 C 210.397 66.838,210.308 68.450,212.106 67.900 C 213.298 67.536,220.398 67.683,221.126 68.087 M176.968 103.124 C 178.170 103.912,178.229 104.446,178.229 114.575 L 178.229 124.180 177.461 124.947 C 176.497 125.911,175.112 126.139,171.202 125.978 C 166.214 125.773,166.332 126.055,166.332 114.266 C 166.332 103.773,166.425 103.291,168.562 102.752 C 170.265 102.323,176.143 102.583,176.968 103.124 M59.024 184.312 C 57.579 184.940,57.606 184.426,57.606 210.553 C 57.606 236.500,57.581 235.996,58.921 236.682 C 60.659 237.572,82.612 237.226,86.410 236.249 C 96.042 233.771,101.730 225.028,102.163 212.035 C 102.633 197.951,96.908 187.704,87.061 185.003 C 82.992 183.887,61.237 183.351,59.024 184.312 M112.367 184.286 C 110.302 185.185,110.214 192.192,112.254 193.247 C 114.396 194.355,120.174 193.626,120.840 192.164 C 121.245 191.275,121.269 185.964,120.871 185.220 C 120.203 183.971,114.520 183.347,112.367 184.286 M80.537 193.654 C 87.958 194.858,90.731 199.533,90.719 210.818 C 90.704 224.368,87.703 227.708,75.445 227.815 C 70.252 227.861,69.514 227.677,68.953 226.202 C 68.522 225.068,68.634 195.547,69.072 194.756 C 69.832 193.386,75.518 192.839,80.537 193.654 M141.853 197.862 C 133.966 198.978,129.414 203.224,129.412 209.466 C 129.411 216.283,132.967 219.233,144.760 222.194 C 151.908 223.989,152.806 224.469,152.806 226.491 C 152.806 231.196,142.892 231.564,139.509 226.985 C 138.305 225.356,137.308 224.746,135.848 224.747 C 134.372 224.749,130.250 225.452,129.564 225.819 C 126.155 227.643,132.386 235.326,138.553 236.903 C 152.180 240.388,163.759 234.928,163.759 225.017 C 163.759 218.366,160.106 215.423,148.302 212.564 C 140.314 210.630,138.356 209.304,140.140 207.035 C 142.208 204.407,148.312 204.708,151.427 207.591 C 153.700 209.696,155.750 209.913,160.026 208.502 C 164.511 207.022,159.529 200.312,152.577 198.469 C 150.564 197.935,143.973 197.562,141.853 197.862 M183.773 197.959 C 172.540 200.387,166.653 213.219,170.780 226.282 C 174.712 238.728,193.318 242.327,201.712 232.265 C 205.674 227.516,204.632 225.753,197.483 225.112 L 195.506 224.935 193.561 226.999 C 190.762 229.971,188.705 230.559,185.417 229.329 C 182.835 228.363,180.274 224.709,180.776 222.708 C 181.169 221.143,181.417 221.108,193.091 220.960 C 206.216 220.794,205.807 220.949,205.455 216.280 C 204.602 204.951,198.144 198.136,187.965 197.822 C 186.254 197.769,184.368 197.831,183.773 197.959 M223.627 198.105 C 218.357 199.106,215.463 201.121,213.403 205.225 C 212.055 207.909,212.949 209.073,216.869 209.739 C 220.065 210.283,220.703 210.136,222.240 208.509 C 226.149 204.366,234.212 205.369,234.212 209.998 C 234.212 210.769,234.022 211.184,233.406 211.760 C 232.527 212.581,232.103 212.709,224.010 214.590 C 214.148 216.883,211.118 219.710,211.097 226.640 C 211.068 236.312,221.641 240.988,231.842 235.814 C 234.316 234.559,235.218 234.484,236.126 235.455 C 237.350 236.765,238.173 237.012,241.403 237.033 C 246.088 237.063,246.564 236.580,245.562 232.812 C 244.998 230.694,244.958 229.917,244.883 219.608 C 244.770 203.997,244.249 202.203,239.072 199.590 C 235.776 197.926,228.337 197.211,223.627 198.105 M265.179 197.862 C 254.877 199.319,249.767 206.776,253.734 214.564 C 255.480 217.992,258.829 219.864,266.667 221.795 C 275.559 223.986,277.382 225.262,275.524 227.996 C 273.193 231.426,265.420 230.834,262.674 227.017 C 260.909 224.563,259.325 224.258,254.361 225.411 C 247.856 226.924,254.907 235.670,264.097 237.489 C 276.472 239.938,286.815 234.198,286.815 224.882 C 286.815 218.370,282.840 215.079,272.106 212.703 C 265.110 211.154,262.880 210.133,262.880 208.477 C 262.880 204.616,270.662 204.053,274.531 207.636 C 276.567 209.521,277.181 209.683,280.280 209.153 C 284.738 208.392,285.674 207.262,284.217 204.404 C 281.767 199.603,273.341 196.708,265.179 197.862 M306.558 198.147 C 302.983 198.906,299.214 201.225,296.954 204.057 C 290.661 211.940,291.590 228.012,298.670 233.779 C 307.041 240.597,321.247 238.855,326.234 230.400 C 328.259 226.966,327.439 225.913,322.233 225.263 C 318.720 224.825,318.316 224.947,316.785 226.919 C 313.372 231.314,307.298 230.741,304.824 225.789 C 302.539 221.216,303.134 220.975,316.755 220.967 C 329.005 220.959,328.654 221.070,328.629 217.197 C 328.544 204.177,318.598 195.592,306.558 198.147 M113.049 198.689 C 110.801 199.430,110.886 198.675,110.886 217.873 C 110.886 238.608,110.465 237.057,116.064 236.975 C 121.656 236.894,121.154 238.788,121.167 217.731 C 121.179 198.373,121.271 199.334,119.340 198.798 C 118.322 198.515,113.813 198.437,113.049 198.689 M190.534 206.614 C 193.734 207.996,195.657 211.733,194.101 213.544 L 193.422 214.334 188.891 214.426 C 182.035 214.564,180.926 214.241,180.939 212.103 C 180.965 207.725,186.187 204.737,190.534 206.614 M313.628 206.495 C 317.429 208.058,319.217 213.354,316.224 214.185 C 315.124 214.491,306.694 214.529,305.636 214.233 C 304.373 213.879,303.830 212.753,304.218 211.288 C 305.332 207.078,309.671 204.868,313.628 206.495 M233.676 220.098 C 234.441 220.718,234.683 222.782,234.219 224.719 C 232.775 230.739,223.942 232.413,221.896 227.055 C 220.723 223.982,222.395 222.087,227.586 220.606 C 231.691 219.435,232.749 219.347,233.676 220.098 " stroke="none" fill="#3186c2" fill-rule="evenodd"></path><path id="path1" d="M0.000 135.227 L 0.000 270.453 200.000 270.453 L 400.000 270.453 400.000 135.227 L 400.000 0.000 200.000 0.000 L 0.000 0.000 0.000 135.227 M201.792 16.618 C 261.312 23.700,284.216 97.530,238.978 136.489 C 194.787 174.546,126.086 142.890,126.185 84.517 C 126.245 48.633,152.338 20.118,188.506 16.411 C 190.969 16.158,198.977 16.283,201.792 16.618 M189.941 43.275 C 188.256 43.954,188.371 40.939,188.371 84.730 L 188.371 124.453 189.254 125.242 L 190.137 126.031 194.310 126.031 C 199.328 126.031,199.759 125.831,200.168 123.313 C 200.430 121.695,200.417 49.496,200.154 46.288 C 199.899 43.186,199.573 42.997,194.508 43.019 C 192.322 43.029,190.267 43.144,189.941 43.275 M212.106 67.900 C 210.308 68.450,210.397 66.838,210.476 97.245 L 210.548 124.726 211.327 125.396 C 212.472 126.381,220.553 126.289,221.562 125.280 L 222.177 124.664 222.249 97.288 C 222.325 68.521,222.334 68.757,221.126 68.087 C 220.398 67.683,213.298 67.536,212.106 67.900 M168.562 102.752 C 166.425 103.291,166.332 103.773,166.332 114.266 C 166.332 126.055,166.214 125.773,171.202 125.978 C 175.112 126.139,176.497 125.911,177.461 124.947 L 178.229 124.180 178.229 114.575 C 178.229 104.446,178.170 103.912,176.968 103.124 C 176.143 102.583,170.265 102.323,168.562 102.752 M82.338 184.183 C 95.500 185.463,102.711 195.593,102.163 212.035 C 101.730 225.028,96.042 233.771,86.410 236.249 C 82.612 237.226,60.659 237.572,58.921 236.682 C 57.581 235.996,57.606 236.500,57.606 210.553 C 57.606 184.426,57.579 184.940,59.024 184.312 C 60.087 183.850,77.899 183.752,82.338 184.183 M119.662 184.291 C 121.811 185.188,121.895 192.161,119.771 193.259 C 118.723 193.801,113.309 193.793,112.254 193.247 C 110.214 192.192,110.302 185.185,112.367 184.286 C 113.505 183.789,118.471 183.793,119.662 184.291 M70.077 193.751 C 68.700 194.515,68.715 194.335,68.705 210.462 C 68.695 226.288,68.714 226.556,69.956 227.369 C 70.949 228.019,79.097 228.006,82.180 227.350 C 88.381 226.031,90.707 221.527,90.719 210.818 C 90.731 199.533,87.958 194.858,80.537 193.654 C 78.006 193.243,70.874 193.309,70.077 193.751 M152.577 198.469 C 159.529 200.312,164.511 207.022,160.026 208.502 C 155.750 209.913,153.700 209.696,151.427 207.591 C 148.312 204.708,142.208 204.407,140.140 207.035 C 138.356 209.304,140.314 210.630,148.302 212.564 C 160.106 215.423,163.759 218.366,163.759 225.017 C 163.759 234.928,152.180 240.388,138.553 236.903 C 132.386 235.326,126.155 227.643,129.564 225.819 C 130.250 225.452,134.372 224.749,135.848 224.747 C 137.308 224.746,138.305 225.356,139.509 226.985 C 142.892 231.564,152.806 231.196,152.806 226.491 C 152.806 224.469,151.908 223.989,144.760 222.194 C 132.967 219.233,129.411 216.283,129.412 209.466 C 129.414 203.224,133.966 198.978,141.853 197.862 C 143.973 197.562,150.564 197.935,152.577 198.469 M193.236 198.639 C 200.574 201.089,204.767 207.142,205.455 216.280 C 205.807 220.949,206.216 220.794,193.091 220.960 C 181.417 221.108,181.169 221.143,180.776 222.708 C 180.274 224.709,182.835 228.363,185.417 229.329 C 188.705 230.559,190.762 229.971,193.561 226.999 L 195.506 224.935 197.483 225.112 C 203.488 225.651,204.946 226.816,203.402 229.843 C 197.935 240.559,179.418 240.751,172.575 230.163 C 168.936 224.533,168.536 214.218,171.700 207.573 C 175.537 199.512,184.596 195.755,193.236 198.639 M235.770 198.359 C 243.738 200.329,244.760 202.712,244.883 219.608 C 244.958 229.917,244.998 230.694,245.562 232.812 C 246.564 236.580,246.088 237.063,241.403 237.033 C 238.173 237.012,237.350 236.765,236.126 235.455 C 235.218 234.484,234.316 234.559,231.842 235.814 C 221.641 240.988,211.068 236.312,211.097 226.640 C 211.118 219.710,214.148 216.883,224.010 214.590 C 232.103 212.709,232.527 212.581,233.406 211.760 C 234.022 211.184,234.212 210.769,234.212 209.998 C 234.212 205.369,226.149 204.366,222.240 208.509 C 220.703 210.136,220.065 210.283,216.869 209.739 C 212.088 208.927,211.638 207.207,215.020 202.676 C 218.170 198.456,227.938 196.424,235.770 198.359 M275.950 198.481 C 280.740 199.750,284.787 203.394,284.787 206.438 C 284.787 207.966,283.820 208.549,280.280 209.153 C 277.181 209.683,276.567 209.521,274.531 207.636 C 270.662 204.053,262.880 204.616,262.880 208.477 C 262.880 210.133,265.110 211.154,272.106 212.703 C 282.840 215.079,286.815 218.370,286.815 224.882 C 286.815 232.917,280.382 237.813,269.777 237.850 C 261.250 237.880,255.457 235.198,252.643 229.918 C 250.809 226.477,251.893 225.434,257.888 224.872 C 260.523 224.625,261.159 224.910,262.674 227.017 C 265.420 230.834,273.193 231.426,275.524 227.996 C 277.382 225.262,275.559 223.986,266.667 221.795 C 258.829 219.864,255.480 217.992,253.734 214.564 C 249.767 206.776,254.877 199.319,265.179 197.862 C 267.327 197.558,273.891 197.936,275.950 198.481 M314.425 198.103 C 322.856 199.716,328.565 207.390,328.629 217.197 C 328.654 221.070,329.005 220.959,316.755 220.967 C 303.134 220.975,302.539 221.216,304.824 225.789 C 307.298 230.741,313.372 231.314,316.785 226.919 C 318.316 224.947,318.720 224.825,322.233 225.263 C 327.439 225.913,328.259 226.966,326.234 230.400 C 321.247 238.855,307.041 240.597,298.670 233.779 C 291.590 228.012,290.661 211.940,296.954 204.057 C 300.923 199.084,307.621 196.801,314.425 198.103 M119.340 198.798 C 121.271 199.334,121.179 198.373,121.167 217.731 C 121.154 238.788,121.656 236.894,116.064 236.975 C 110.465 237.057,110.886 238.608,110.886 217.873 C 110.886 198.675,110.801 199.430,113.049 198.689 C 113.813 198.437,118.322 198.515,119.340 198.798 M186.430 206.098 C 183.442 206.687,180.955 209.407,180.939 212.103 C 180.926 214.241,182.035 214.564,188.891 214.426 L 193.422 214.334 194.101 213.544 C 196.655 210.573,191.097 205.178,186.430 206.098 M309.143 206.240 C 304.784 207.430,302.218 213.277,305.636 214.233 C 308.252 214.965,316.999 214.346,317.509 213.393 C 319.415 209.832,313.745 204.984,309.143 206.240 M230.561 219.791 C 223.085 221.458,220.565 223.571,221.896 227.055 C 223.942 232.413,232.775 230.739,234.219 224.719 C 235.144 220.862,233.811 219.067,230.561 219.791 " stroke="none" fill="#fbfbfb" fill-rule="evenodd"></path></g></svg>