<svg id="svg" version="1.1" xmlns="http://www.w3.org/2000/svg" xmlns:xlink="http://www.w3.org/1999/xlink" width="400" height="289.1304347826087" viewBox="0, 0, 400,289.1304347826087"><g id="svgg"><path id="path0" d="M181.345 8.991 C 132.903 13.658,98.336 58.499,106.449 106.146 C 115.620 160.001,172.727 191.104,222.521 169.364 C 262.573 151.877,282.460 107.138,268.575 65.759 C 265.982 58.030,264.541 54.944,260.358 48.156 C 243.898 21.443,212.684 5.971,181.345 8.991 M231.516 63.049 C 239.206 65.016,244.128 70.174,245.995 78.223 C 249.006 91.208,243.473 100.481,230.889 103.538 C 221.487 105.823,217.094 106.894,210.846 108.425 C 206.949 109.381,201.547 110.694,198.843 111.343 C 196.139 111.992,192.104 112.992,189.877 113.565 C 187.650 114.138,184.201 114.981,182.213 115.439 C 180.224 115.896,174.432 117.308,169.342 118.577 C 164.252 119.845,158.785 121.172,157.195 121.525 C 144.550 124.330,134.771 118.386,132.136 106.291 C 129.380 93.647,135.113 84.200,147.216 81.439 C 151.446 80.474,162.446 77.772,165.582 76.928 C 167.332 76.457,169.675 75.862,170.788 75.606 C 173.490 74.985,182.636 72.771,192.046 70.459 C 226.059 62.103,227.074 61.913,231.516 63.049 M225.597 66.151 C 225.199 66.222,223.377 66.648,221.547 67.097 C 219.718 67.546,214.837 68.719,210.701 69.703 C 206.565 70.688,201.555 71.933,199.566 72.471 C 197.578 73.009,194.149 73.840,191.946 74.318 C 184.807 75.866,184.815 75.849,187.016 84.975 C 192.953 109.584,192.455 108.171,195.200 108.171 C 196.153 108.171,205.512 106.109,208.243 105.297 C 209.277 104.990,211.685 104.391,213.594 103.966 C 221.919 102.113,232.966 99.168,234.707 98.337 C 242.990 94.384,245.502 84.609,240.788 74.682 C 238.193 69.218,231.011 65.185,225.597 66.151 M159.074 81.598 C 150.085 83.756,148.550 84.168,147.387 84.731 C 143.045 86.832,145.860 90.297,151.068 89.261 C 164.007 86.686,167.938 84.975,166.866 82.386 C 166.079 80.488,164.406 80.319,159.074 81.598 M94.410 207.480 C 92.777 208.221,92.826 207.212,92.909 238.098 L 92.986 266.651 93.645 267.309 C 94.900 268.565,121.294 268.543,125.891 267.282 C 137.890 263.990,143.870 254.305,143.863 238.178 C 143.854 220.565,137.657 210.762,124.740 207.927 C 121.067 207.121,96.015 206.752,94.410 207.480 M120.171 218.548 C 127.986 220.164,130.837 225.290,130.848 237.744 C 130.861 253.450,127.728 257.264,114.534 257.609 C 104.690 257.866,105.569 259.806,105.568 237.807 C 105.568 220.001,105.616 219.216,106.767 218.473 C 107.852 217.774,116.666 217.823,120.171 218.548 M172.151 223.443 C 171.309 223.670,169.632 224.507,168.423 225.304 C 165.772 227.052,166.037 227.040,164.497 225.478 C 162.072 223.019,154.826 223.221,153.855 225.775 C 153.338 227.138,153.499 265.672,154.027 266.693 C 154.660 267.918,155.436 268.113,159.686 268.113 C 166.030 268.113,165.672 268.955,165.835 253.651 C 165.966 241.372,166.064 240.457,167.554 237.545 C 169.049 234.622,171.374 233.655,175.450 234.262 C 178.958 234.784,179.257 234.545,180.799 229.984 C 181.746 227.181,181.808 226.483,181.213 225.332 C 180.231 223.433,175.698 222.488,172.151 223.443 M251.482 223.272 C 244.700 224.736,239.852 229.480,237.434 237.021 C 236.427 240.161,236.267 249.316,237.157 252.958 C 240.367 266.110,253.010 272.223,263.232 265.566 C 267.029 263.092,267.534 263.335,267.534 267.633 C 267.534 273.783,265.348 276.295,259.644 276.698 C 256.012 276.954,254.515 276.503,252.541 274.561 C 250.405 272.459,249.958 272.267,245.973 271.744 C 239.084 270.841,237.801 271.271,238.121 274.373 C 238.906 281.982,246.250 286.122,258.858 286.063 C 270.293 286.009,276.259 282.313,278.727 273.753 C 279.473 271.165,279.680 226.991,278.953 225.585 C 277.630 223.027,270.664 223.138,268.522 225.752 C 267.199 227.367,266.835 227.366,264.066 225.742 C 260.050 223.388,255.281 222.451,251.482 223.272 M189.588 224.040 C 186.918 224.688,186.985 224.238,186.985 241.649 C 186.985 258.089,186.989 258.136,188.714 261.916 C 192.237 269.635,203.501 271.567,212.184 265.942 C 214.703 264.310,214.990 264.318,216.050 266.039 C 217.194 267.899,217.812 268.129,221.681 268.135 C 227.711 268.145,227.171 270.209,227.267 246.770 C 227.368 222.272,227.797 224.080,221.850 223.911 C 214.961 223.715,215.186 223.258,215.182 237.455 C 215.179 249.125,214.937 252.629,213.981 254.852 C 211.935 259.608,204.756 261.396,201.220 258.029 C 199.232 256.136,199.193 255.822,198.998 240.202 C 198.815 225.553,198.790 225.304,197.449 224.433 C 196.820 224.024,190.876 223.727,189.588 224.040 M261.987 233.425 C 270.291 237.575,269.623 254.887,261.048 257.796 C 253.644 260.307,248.271 254.228,248.820 243.962 C 249.308 234.855,255.282 230.075,261.987 233.425 " stroke="none" fill="#3186c3" fill-rule="evenodd"></path><path id="path1" d="M0.000 144.613 L 0.000 289.226 200.000 289.226 L 400.000 289.226 400.000 144.613 L 400.000 0.000 200.000 0.000 L 0.000 0.000 0.000 144.613 M196.426 8.965 C 225.233 11.741,248.114 26.741,263.046 52.639 C 270.098 64.870,274.129 84.314,272.760 99.502 C 267.239 160.771,200.495 195.598,147.196 165.021 C 106.417 141.626,93.038 88.453,117.841 48.356 C 134.401 21.586,165.520 5.988,196.426 8.965 M224.729 62.672 C 223.746 62.836,201.517 68.132,192.046 70.459 C 182.636 72.771,173.490 74.985,170.788 75.606 C 169.675 75.862,167.332 76.457,165.582 76.928 C 162.446 77.772,151.446 80.474,147.216 81.439 C 135.113 84.200,129.380 93.647,132.136 106.291 C 134.771 118.386,144.550 124.330,157.195 121.525 C 158.785 121.172,164.252 119.845,169.342 118.577 C 174.432 117.308,180.224 115.896,182.213 115.439 C 184.201 114.981,187.650 114.138,189.877 113.565 C 192.104 112.992,196.139 111.992,198.843 111.343 C 201.547 110.694,206.949 109.381,210.846 108.425 C 217.094 106.894,221.487 105.823,230.889 103.538 C 244.679 100.188,250.203 88.723,244.864 74.537 C 241.899 66.661,232.835 61.320,224.729 62.672 M229.753 66.375 C 244.851 69.574,248.304 91.848,234.707 98.337 C 232.966 99.168,221.919 102.113,213.594 103.966 C 211.685 104.391,209.277 104.990,208.243 105.297 C 205.512 106.109,196.153 108.171,195.200 108.171 C 192.455 108.171,192.953 109.584,187.016 84.975 C 184.815 75.849,184.807 75.866,191.946 74.318 C 194.149 73.840,197.578 73.009,199.566 72.471 C 201.555 71.933,206.565 70.688,210.701 69.703 C 214.837 68.719,219.718 67.546,221.547 67.097 C 226.829 65.800,226.980 65.787,229.753 66.375 M165.700 81.114 C 167.490 82.040,167.412 84.241,165.546 85.464 C 163.932 86.521,149.339 89.851,147.682 89.541 C 146.596 89.337,145.481 88.212,145.481 87.321 C 145.481 85.438,146.946 84.540,152.043 83.299 C 163.835 80.426,164.243 80.361,165.700 81.114 M124.740 207.927 C 137.657 210.762,143.854 220.565,143.863 238.178 C 143.870 254.305,137.890 263.990,125.891 267.282 C 121.294 268.543,94.900 268.565,93.645 267.309 L 92.986 266.651 92.909 238.098 C 92.826 207.212,92.777 208.221,94.410 207.480 C 96.015 206.752,121.067 207.121,124.740 207.927 M109.328 218.056 C 105.311 218.362,105.568 217.016,105.568 237.807 C 105.569 259.806,104.690 257.866,114.534 257.609 C 127.728 257.264,130.861 253.450,130.848 237.744 C 130.834 221.625,125.579 216.817,109.328 218.056 M177.278 223.279 C 181.574 224.094,182.314 225.503,180.799 229.984 C 179.257 234.545,178.958 234.784,175.450 234.262 C 171.374 233.655,169.049 234.622,167.554 237.545 C 166.064 240.457,165.966 241.372,165.835 253.651 C 165.672 268.955,166.030 268.113,159.686 268.113 C 155.436 268.113,154.660 267.918,154.027 266.693 C 153.499 265.672,153.338 227.138,153.855 225.775 C 154.826 223.221,162.072 223.019,164.497 225.478 C 166.037 227.040,165.772 227.052,168.423 225.304 C 171.595 223.213,174.012 222.660,177.278 223.279 M260.136 223.831 C 261.078 224.167,262.846 225.027,264.066 225.742 C 266.835 227.366,267.199 227.367,268.522 225.752 C 270.664 223.138,277.630 223.027,278.953 225.585 C 279.680 226.991,279.473 271.165,278.727 273.753 C 276.259 282.313,270.293 286.009,258.858 286.063 C 246.250 286.122,238.906 281.982,238.121 274.373 C 237.801 271.271,239.084 270.841,245.973 271.744 C 249.958 272.267,250.405 272.459,252.541 274.561 C 254.515 276.503,256.012 276.954,259.644 276.698 C 265.348 276.295,267.534 273.783,267.534 267.633 C 267.534 263.335,267.029 263.092,263.232 265.566 C 254.731 271.102,243.749 267.731,239.063 258.146 C 235.576 251.014,235.571 240.243,239.052 232.972 C 242.753 225.239,252.382 221.065,260.136 223.831 M197.449 224.433 C 198.790 225.304,198.815 225.553,198.998 240.202 C 199.193 255.822,199.232 256.136,201.220 258.029 C 204.756 261.396,211.935 259.608,213.981 254.852 C 214.937 252.629,215.179 249.125,215.182 237.455 C 215.186 223.258,214.961 223.715,221.850 223.911 C 227.797 224.080,227.368 222.272,227.267 246.770 C 227.171 270.209,227.711 268.145,221.681 268.135 C 217.812 268.129,217.194 267.899,216.050 266.039 C 214.990 264.318,214.703 264.310,212.184 265.942 C 203.501 271.567,192.237 269.635,188.714 261.916 C 186.989 258.136,186.985 258.089,186.985 241.649 C 186.985 224.238,186.918 224.688,189.588 224.040 C 190.876 223.727,196.820 224.024,197.449 224.433 M255.025 232.951 C 246.491 235.996,246.561 255.034,255.116 257.797 C 263.305 260.441,269.669 251.848,267.411 241.195 C 266.018 234.623,260.545 230.981,255.025 232.951 " stroke="none" fill="#fbfcfb" fill-rule="evenodd"></path></g></svg>