<svg id="svg" version="1.1" xmlns="http://www.w3.org/2000/svg" xmlns:xlink="http://www.w3.org/1999/xlink" width="400" height="264.5011600928074" viewBox="0, 0, 400,264.5011600928074"><g id="svgg"><path id="path0" d="M194.575 9.537 C 136.206 15.210,110.324 86.395,151.574 127.803 C 188.253 164.623,250.412 150.143,267.179 100.874 C 283.200 53.798,244.184 4.715,194.575 9.537 M198.677 38.736 C 208.009 40.502,212.833 45.257,213.780 53.620 C 214.712 61.862,211.750 68.245,205.614 71.215 C 200.918 73.488,200.718 72.642,209.207 86.376 C 213.954 94.054,214.305 94.178,217.468 89.286 C 220.129 85.172,220.960 84.756,226.094 84.971 C 231.668 85.204,231.665 85.493,225.999 93.585 C 223.885 96.604,221.980 99.485,221.766 99.987 C 221.069 101.623,221.193 101.837,229.467 113.331 C 233.707 119.222,233.513 119.633,226.540 119.516 C 221.272 119.428,221.637 119.646,218.189 114.535 C 213.900 108.179,213.822 108.180,209.241 114.683 C 205.785 119.589,205.807 119.577,200.458 119.577 C 195.430 119.577,194.570 119.189,195.370 117.286 C 195.702 116.497,196.232 115.745,202.056 107.813 C 207.416 100.512,207.525 101.615,200.509 92.196 C 199.208 90.450,197.012 87.354,195.628 85.317 C 188.526 74.860,188.198 74.515,185.233 74.381 C 181.284 74.203,181.220 74.401,181.218 86.852 C 181.217 97.317,181.181 97.568,179.598 98.119 C 178.144 98.626,170.678 98.500,169.577 97.949 C 167.911 97.117,167.970 98.281,168.050 67.740 C 168.129 37.310,168.035 39.033,169.658 38.353 C 170.814 37.869,195.842 38.200,198.677 38.736 M182.804 49.652 C 181.478 50.340,181.249 51.276,181.233 56.085 C 181.212 62.626,181.510 63.094,185.703 63.097 C 191.975 63.100,194.842 62.825,196.382 62.071 C 202.144 59.252,201.381 51.801,195.129 49.837 C 192.941 49.149,184.030 49.015,182.804 49.652 M56.217 187.330 C 47.267 188.621,39.701 195.553,37.481 204.497 C 33.142 221.980,40.463 237.355,54.497 240.233 C 66.303 242.655,76.598 237.747,80.291 227.936 C 81.531 224.642,81.180 223.964,77.527 222.593 C 72.604 220.746,71.846 220.951,69.938 224.644 C 65.169 233.878,53.650 233.929,49.310 224.735 C 47.224 220.316,46.828 211.580,48.442 205.564 C 51.304 194.894,63.838 192.889,69.910 202.129 C 71.548 204.621,71.811 204.696,75.846 203.809 C 81.129 202.648,81.737 201.628,79.643 197.445 C 75.825 189.818,66.598 185.833,56.217 187.330 M103.571 201.720 C 96.449 203.066,91.974 206.918,89.180 214.107 L 88.236 216.534 88.240 220.899 C 88.250 232.905,94.975 240.173,106.536 240.672 C 118.355 241.182,127.005 232.902,127.054 221.032 C 127.108 208.196,116.307 199.314,103.571 201.720 M151.588 201.731 C 150.788 201.956,149.062 202.708,147.752 203.404 C 144.287 205.244,144.580 205.229,143.110 203.639 L 141.824 202.249 138.643 202.249 C 135.518 202.249,135.448 202.262,134.728 202.982 L 133.995 203.716 133.995 221.032 L 133.995 238.348 134.728 239.081 C 135.869 240.222,142.172 240.223,143.314 239.082 L 144.048 238.349 144.201 227.441 C 144.368 215.538,144.477 214.555,145.856 212.503 C 148.202 209.015,153.454 208.419,155.287 211.433 C 156.304 213.105,156.432 214.741,156.386 225.529 C 156.322 240.469,156.095 239.763,161.014 239.905 C 167.152 240.083,166.759 240.920,166.961 227.249 C 167.149 214.532,167.192 214.231,169.205 211.740 C 171.253 209.205,175.176 208.741,177.314 210.780 C 179.105 212.488,179.187 213.127,179.350 226.514 L 179.497 238.611 180.099 239.213 C 181.561 240.674,188.358 240.120,189.042 238.484 C 189.485 237.424,189.577 217.173,189.160 212.552 C 188.152 201.376,177.504 197.795,167.223 205.175 C 166.044 206.021,165.377 205.989,164.127 205.025 C 159.737 201.640,155.700 200.579,151.588 201.731 M216.607 201.716 C 215.064 202.108,212.859 203.114,211.609 203.996 C 209.934 205.176,209.594 205.149,208.222 203.726 C 206.753 202.201,206.041 201.997,202.790 202.167 C 198.356 202.400,198.680 200.347,198.680 228.175 C 198.680 256.611,198.208 254.233,203.857 254.233 C 208.944 254.233,208.979 254.169,208.988 244.834 C 208.997 236.876,209.149 236.602,212.462 238.600 C 225.886 246.697,239.325 231.802,234.781 213.862 C 232.607 205.278,224.337 199.751,216.607 201.716 M252.591 201.828 C 248.457 202.731,246.355 204.054,244.010 207.229 C 241.324 210.863,242.016 212.426,246.621 213.123 C 249.787 213.603,250.278 213.474,252.242 211.646 C 256.315 207.857,263.624 208.953,263.624 213.351 C 263.624 215.477,263.166 215.700,255.159 217.471 C 243.948 219.950,240.873 222.596,240.873 229.762 C 240.873 239.332,252.032 244.133,261.415 238.601 C 263.531 237.353,264.275 237.321,265.509 238.425 C 267.090 239.838,267.453 239.947,270.605 239.947 C 273.795 239.947,274.795 239.667,275.036 238.708 C 275.204 238.038,275.160 237.721,274.460 234.524 C 274.067 232.730,273.989 230.815,273.949 221.958 C 273.883 207.291,273.427 205.786,268.264 203.179 C 264.736 201.398,257.437 200.769,252.591 201.828 M301.979 201.712 C 299.914 202.161,298.644 202.702,296.693 203.961 C 294.370 205.460,293.930 205.459,292.977 203.948 C 291.616 201.792,286.028 201.257,284.360 203.123 L 283.598 203.977 283.598 221.153 L 283.598 238.330 284.236 239.073 L 284.875 239.815 288.595 239.815 C 292.308 239.815,292.318 239.813,293.050 239.082 L 293.783 238.349 293.932 227.177 C 294.093 215.135,294.175 214.413,295.586 212.501 C 298.095 209.099,303.255 208.485,305.872 211.276 C 307.555 213.071,307.700 214.387,307.762 228.439 C 307.815 240.485,307.553 239.947,313.372 239.947 C 318.553 239.947,318.404 240.442,318.172 224.075 C 317.998 211.823,317.868 210.590,316.432 207.521 C 314.251 202.860,308.085 200.382,301.979 201.712 M325.208 202.493 C 323.495 203.266,323.543 203.527,327.162 213.095 C 331.337 224.130,331.532 224.642,335.067 233.862 C 338.292 242.271,336.416 246.537,329.278 247.026 C 325.908 247.257,324.881 249.673,326.606 253.310 C 328.473 257.243,340.187 255.186,343.579 250.330 C 345.566 247.485,345.616 247.360,354.656 222.487 C 355.158 221.104,355.857 219.200,356.210 218.254 C 358.148 213.053,360.570 206.340,360.854 205.381 C 361.590 202.899,360.552 202.116,356.523 202.116 C 351.261 202.116,351.647 201.630,347.895 212.999 C 342.437 229.537,343.103 229.645,337.027 211.243 C 334.028 202.161,334.135 202.286,329.245 202.179 C 326.905 202.128,325.832 202.212,325.208 202.493 M110.956 210.674 C 114.991 212.535,117.054 217.255,116.390 223.108 C 115.052 234.910,100.727 235.626,98.907 223.982 C 97.393 214.292,103.698 207.327,110.956 210.674 M220.307 210.468 C 227.378 213.991,226.723 230.038,219.421 232.161 C 213.412 233.908,209.004 229.032,209.002 220.635 C 208.999 212.368,214.390 207.519,220.307 210.468 M263.294 223.586 C 264.056 224.487,263.934 227.583,263.067 229.323 C 260.578 234.318,252.697 234.615,251.357 229.764 C 250.524 226.746,252.280 225.036,257.578 223.709 C 261.869 222.634,262.477 222.620,263.294 223.586 " stroke="none" fill="#3186c2" fill-rule="evenodd"></path><path id="path1" d="M0.000 132.275 L 0.000 264.550 200.000 264.550 L 400.000 264.550 400.000 132.275 L 400.000 0.000 200.000 0.000 L 0.000 0.000 0.000 132.275 M207.307 9.524 C 254.359 13.690,284.072 63.833,264.904 106.725 C 240.957 160.310,166.337 162.754,139.191 110.844 C 113.905 62.490,152.759 4.695,207.307 9.524 M169.658 38.353 C 168.035 39.033,168.129 37.310,168.050 67.740 C 167.970 98.281,167.911 97.117,169.577 97.949 C 170.678 98.500,178.144 98.626,179.598 98.119 C 181.181 97.568,181.217 97.317,181.218 86.852 C 181.220 74.401,181.284 74.203,185.233 74.381 C 188.198 74.515,188.526 74.860,195.628 85.317 C 197.012 87.354,199.208 90.450,200.509 92.196 C 207.525 101.615,207.416 100.512,202.056 107.813 C 196.232 115.745,195.702 116.497,195.370 117.286 C 194.570 119.189,195.430 119.577,200.458 119.577 C 205.807 119.577,205.785 119.589,209.241 114.683 C 213.822 108.180,213.900 108.179,218.189 114.535 C 221.637 119.646,221.272 119.428,226.540 119.516 C 233.513 119.633,233.707 119.222,229.467 113.331 C 221.193 101.837,221.069 101.623,221.766 99.987 C 221.980 99.485,223.885 96.604,225.999 93.585 C 231.665 85.493,231.668 85.204,226.094 84.971 C 220.960 84.756,220.129 85.172,217.468 89.286 C 214.305 94.178,213.954 94.054,209.207 86.376 C 200.718 72.642,200.918 73.488,205.614 71.215 C 211.750 68.245,214.712 61.862,213.780 53.620 C 212.833 45.257,208.009 40.502,198.677 38.736 C 195.842 38.200,170.814 37.869,169.658 38.353 M195.129 49.837 C 201.381 51.801,202.144 59.252,196.382 62.071 C 194.842 62.825,191.975 63.100,185.703 63.097 C 181.510 63.094,181.212 62.626,181.233 56.085 C 181.256 49.158,181.307 49.112,188.757 49.292 C 192.333 49.379,194.171 49.536,195.129 49.837 M65.654 187.539 C 72.059 188.694,77.022 192.208,79.643 197.445 C 81.737 201.628,81.129 202.648,75.846 203.809 C 71.811 204.696,71.548 204.621,69.910 202.129 C 63.838 192.889,51.304 194.894,48.442 205.564 C 46.828 211.580,47.224 220.316,49.310 224.735 C 53.650 233.929,65.169 233.878,69.938 224.644 C 71.846 220.951,72.604 220.746,77.527 222.593 C 81.180 223.964,81.531 224.642,80.291 227.936 C 76.598 237.747,66.303 242.655,54.497 240.233 C 40.463 237.355,33.142 221.980,37.481 204.497 C 40.539 192.178,52.259 185.123,65.654 187.539 M111.446 201.699 C 131.861 205.605,132.476 235.563,112.238 240.240 C 98.845 243.335,88.252 234.797,88.240 220.899 L 88.236 216.534 89.180 214.107 C 92.896 204.544,101.438 199.785,111.446 201.699 M159.123 201.985 C 160.416 202.435,162.076 203.444,164.127 205.025 C 165.377 205.989,166.044 206.021,167.223 205.175 C 175.784 199.029,185.387 200.517,188.377 208.451 C 189.433 211.252,189.985 236.225,189.042 238.484 C 188.358 240.120,181.561 240.674,180.099 239.213 L 179.497 238.611 179.350 226.514 C 179.187 213.127,179.105 212.488,177.314 210.780 C 175.176 208.741,171.253 209.205,169.205 211.740 C 167.192 214.231,167.149 214.532,166.961 227.249 C 166.759 240.920,167.152 240.083,161.014 239.905 C 156.095 239.763,156.322 240.469,156.386 225.529 C 156.432 214.741,156.304 213.105,155.287 211.433 C 153.454 208.419,148.202 209.015,145.856 212.503 C 144.477 214.555,144.368 215.538,144.201 227.441 L 144.048 238.349 143.314 239.082 C 142.172 240.223,135.869 240.222,134.728 239.081 L 133.995 238.348 133.995 221.032 L 133.995 203.716 134.728 202.982 C 135.448 202.262,135.518 202.249,138.643 202.249 L 141.824 202.249 143.110 203.639 C 144.580 205.229,144.287 205.244,147.752 203.404 C 151.780 201.265,155.661 200.781,159.123 201.985 M224.351 202.066 C 233.313 205.203,237.772 216.389,234.777 228.219 C 232.097 238.803,221.202 243.872,212.462 238.600 C 209.149 236.602,208.997 236.876,208.988 244.834 C 208.979 254.169,208.944 254.233,203.857 254.233 C 198.208 254.233,198.680 256.611,198.680 228.175 C 198.680 200.347,198.356 202.400,202.790 202.167 C 206.041 201.997,206.753 202.201,208.222 203.726 C 209.594 205.149,209.934 205.176,211.609 203.996 C 215.192 201.469,220.394 200.681,224.351 202.066 M265.147 201.959 C 272.943 204.090,273.878 206.215,273.949 221.958 C 273.989 230.815,274.067 232.730,274.460 234.524 C 275.160 237.721,275.204 238.038,275.036 238.708 C 274.795 239.667,273.795 239.947,270.605 239.947 C 267.453 239.947,267.090 239.838,265.509 238.425 C 264.275 237.321,263.531 237.353,261.415 238.601 C 252.032 244.133,240.873 239.332,240.873 229.762 C 240.873 222.596,243.948 219.950,255.159 217.471 C 263.166 215.700,263.624 215.477,263.624 213.351 C 263.624 208.953,256.315 207.857,252.242 211.646 C 250.278 213.474,249.787 213.603,246.621 213.123 C 241.281 212.314,241.160 209.271,246.286 204.665 C 249.582 201.703,259.176 200.326,265.147 201.959 M308.254 201.613 C 316.440 203.308,317.925 206.670,318.172 224.075 C 318.404 240.442,318.553 239.947,313.372 239.947 C 307.553 239.947,307.815 240.485,307.762 228.439 C 307.700 214.387,307.555 213.071,305.872 211.276 C 303.255 208.485,298.095 209.099,295.586 212.501 C 294.175 214.413,294.093 215.135,293.932 227.177 L 293.783 238.349 293.050 239.082 C 292.318 239.813,292.308 239.815,288.595 239.815 L 284.875 239.815 284.236 239.073 L 283.598 238.330 283.598 221.153 L 283.598 203.977 284.360 203.123 C 286.028 201.257,291.616 201.792,292.977 203.948 C 293.930 205.459,294.370 205.460,296.693 203.961 C 300.260 201.659,304.407 200.817,308.254 201.613 M333.160 202.726 C 334.339 203.499,334.819 204.557,337.027 211.243 C 343.103 229.645,342.437 229.537,347.895 212.999 C 351.647 201.630,351.261 202.116,356.523 202.116 C 360.552 202.116,361.590 202.899,360.854 205.381 C 360.570 206.340,358.148 213.053,356.210 218.254 C 355.857 219.200,355.158 221.104,354.656 222.487 C 345.616 247.360,345.566 247.485,343.579 250.330 C 340.187 255.186,328.473 257.243,326.606 253.310 C 324.881 249.673,325.908 247.257,329.278 247.026 C 336.416 246.537,338.292 242.271,335.067 233.862 C 331.532 224.642,331.337 224.130,327.162 213.095 C 323.543 203.527,323.495 203.266,325.208 202.493 C 326.497 201.912,332.171 202.078,333.160 202.726 M105.103 210.252 C 100.249 211.881,97.848 217.202,98.907 223.982 C 100.727 235.626,115.052 234.910,116.390 223.108 C 117.367 214.494,111.699 208.038,105.103 210.252 M214.286 210.134 C 207.329 212.327,207.125 228.228,214.009 231.740 C 218.601 234.083,223.531 231.189,224.751 225.435 C 226.888 215.352,221.717 207.792,214.286 210.134 M260.847 222.935 C 253.200 224.331,250.411 226.339,251.357 229.764 C 252.382 233.477,257.483 234.444,261.175 231.625 C 264.958 228.737,264.712 222.228,260.847 222.935 " stroke="none" fill="#ffffff" fill-rule="evenodd"></path></g></svg>