<svg id="svg" version="1.1" xmlns="http://www.w3.org/2000/svg" xmlns:xlink="http://www.w3.org/1999/xlink" width="400" height="280.19323671497585" viewBox="0, 0, 400,280.19323671497585"><g id="svgg"><path id="path0" d="M192.432 14.311 C 172.133 16.045,151.599 28.319,139.744 45.805 C 137.634 48.916,136.596 51.906,137.706 51.671 C 140.922 50.991,141.890 50.938,142.837 51.390 C 144.302 52.088,145.676 51.988,146.843 51.098 C 147.625 50.501,148.108 50.350,149.097 50.393 C 150.723 50.464,151.397 49.999,152.562 48.006 C 154.026 45.498,155.208 44.898,161.037 43.701 C 166.053 42.671,168.933 42.668,172.892 43.690 C 177.296 44.827,178.636 44.807,183.617 43.533 C 190.511 41.768,196.149 41.983,199.565 44.139 C 200.168 44.520,201.269 44.980,202.012 45.161 C 204.359 45.734,204.632 46.435,203.206 48.235 C 202.074 49.664,201.861 50.516,202.033 52.922 C 202.176 54.911,202.164 54.952,200.579 58.163 C 198.809 61.749,198.634 61.915,195.472 63.038 C 191.713 64.373,189.014 66.320,187.356 68.893 C 184.855 72.773,181.482 70.342,179.665 63.350 C 179.324 62.039,178.799 60.024,178.499 58.871 C 177.512 55.087,176.659 54.310,172.811 53.687 C 170.941 53.384,170.163 53.114,169.404 52.506 C 168.863 52.072,168.116 51.472,167.744 51.173 C 166.789 50.405,165.398 51.090,164.256 52.891 C 162.766 55.241,163.374 56.365,167.300 58.517 C 173.119 61.707,174.751 64.759,172.548 68.330 C 171.225 70.473,171.133 70.233,174.509 73.497 C 179.770 78.584,180.843 82.294,177.295 83.132 C 176.833 83.241,175.647 83.754,174.660 84.272 C 173.673 84.790,172.628 85.214,172.338 85.214 C 170.636 85.214,168.926 86.530,166.694 89.559 C 165.899 90.638,164.717 92.181,164.067 92.988 C 163.416 93.795,162.735 94.955,162.551 95.566 C 162.130 96.974,161.832 97.075,160.077 96.408 C 156.149 94.916,152.207 96.340,152.207 99.251 C 152.207 101.050,153.158 101.862,155.461 102.032 L 157.361 102.172 158.946 104.239 C 162.541 108.927,162.061 110.561,157.923 107.726 C 156.623 106.835,154.868 106.011,152.554 105.204 C 148.362 103.742,147.845 103.478,146.601 102.168 C 146.062 101.600,144.926 100.656,144.078 100.071 C 142.249 98.809,141.457 97.977,139.943 95.725 C 139.320 94.800,138.409 93.665,137.917 93.203 C 135.420 90.854,134.635 89.100,134.299 85.120 L 134.073 82.440 131.618 78.771 C 128.876 74.672,128.800 74.642,127.928 77.298 C 127.259 79.337,127.151 92.729,127.772 96.706 C 130.732 115.675,140.604 132.536,155.486 144.038 C 159.401 147.064,163.844 149.824,165.211 150.081 C 165.731 150.178,166.934 150.761,167.886 151.376 C 170.402 153.002,172.478 153.997,175.691 155.116 C 191.212 160.518,207.857 160.545,223.546 155.194 C 236.832 150.662,248.387 142.318,257.540 130.645 C 261.067 126.148,265.677 117.932,266.990 113.805 C 267.260 112.957,267.916 111.259,268.449 110.031 C 269.745 107.043,270.073 103.714,269.072 103.714 C 267.824 103.714,265.751 106.599,265.738 108.353 C 265.716 111.504,262.618 109.839,261.173 105.900 C 259.023 100.036,254.092 97.602,251.921 101.331 C 250.818 103.227,249.883 104.181,248.182 105.150 C 245.996 106.395,245.722 106.803,245.944 108.478 C 246.212 110.498,245.444 112.056,242.904 114.646 C 239.794 117.817,239.601 118.469,240.388 123.125 C 240.659 124.726,240.361 125.402,238.680 127.007 C 237.378 128.250,237.046 128.778,236.575 130.361 C 234.731 136.554,228.858 140.515,225.792 137.635 C 223.779 135.743,221.687 128.576,221.788 123.914 L 221.864 120.392 220.178 117.029 C 217.958 112.599,217.463 112.291,212.893 112.494 C 208.823 112.675,208.088 112.413,205.718 109.941 C 201.711 105.759,201.887 102.535,206.466 96.251 C 208.960 92.829,209.263 92.116,208.851 90.632 C 208.127 88.027,208.488 86.690,210.231 85.510 C 212.646 83.877,212.508 82.133,209.741 79.277 C 208.260 77.749,208.220 76.873,209.540 74.879 C 210.734 73.075,212.033 73.137,213.221 75.056 C 214.837 77.666,216.428 78.292,218.028 76.945 C 219.244 75.922,219.365 75.043,218.513 73.415 C 217.250 70.998,217.704 69.187,220.044 67.306 C 220.675 66.799,221.775 65.506,222.489 64.433 C 225.481 59.933,230.292 58.997,236.440 61.718 L 239.804 63.207 242.887 63.127 C 245.543 63.059,246.365 62.913,248.817 62.077 C 250.383 61.544,252.149 61.104,252.742 61.101 C 254.836 61.088,255.901 60.647,257.505 59.130 L 259.058 57.662 261.954 57.826 C 266.731 58.097,266.684 56.767,261.624 48.568 C 246.996 24.865,220.786 11.888,192.432 14.311 M252.407 46.629 C 253.086 47.126,252.731 47.652,251.717 47.652 C 250.703 47.652,250.347 47.126,251.027 46.629 C 251.311 46.421,251.622 46.251,251.717 46.251 C 251.812 46.251,252.123 46.421,252.407 46.629 M229.853 47.740 C 230.803 48.227,230.849 50.546,229.924 51.296 C 229.392 51.726,226.440 52.191,224.254 52.189 C 223.462 52.189,222.004 50.730,222.004 49.939 C 222.004 48.228,227.695 46.633,229.853 47.740 M136.120 53.702 C 135.823 54.475,135.924 54.750,136.370 54.380 C 136.829 53.999,136.941 53.259,136.540 53.259 C 136.402 53.259,136.213 53.458,136.120 53.702 M252.714 54.685 C 252.817 54.854,252.460 55.453,251.919 56.017 C 251.378 56.581,250.667 57.579,250.339 58.234 C 249.759 59.393,249.370 59.633,248.753 59.211 C 247.400 58.285,248.947 55.689,251.445 54.692 C 252.362 54.326,252.491 54.325,252.714 54.685 M147.581 55.607 C 146.926 56.087,147.637 57.463,148.540 57.463 C 149.417 57.463,149.775 55.703,148.961 55.391 C 148.330 55.149,148.175 55.173,147.581 55.607 M133.294 58.851 C 132.503 60.381,132.872 61.458,133.956 60.781 C 134.723 60.303,135.078 59.407,134.799 58.655 C 134.476 57.779,133.803 57.867,133.294 58.851 M203.524 65.613 C 204.047 66.135,204.065 66.256,203.702 66.804 C 202.828 68.127,200.909 68.052,200.039 66.660 C 199.204 65.322,202.302 64.391,203.524 65.613 M165.652 99.038 C 169.003 100.675,170.404 103.311,167.905 103.276 C 163.652 103.215,161.607 102.267,161.812 100.451 C 162.082 98.056,162.971 97.729,165.652 99.038 M173.933 108.041 C 174.518 108.286,175.544 108.990,176.212 109.605 C 176.879 110.221,178.090 111.026,178.902 111.395 C 179.744 111.777,181.161 112.830,182.200 113.846 C 183.723 115.335,184.495 115.828,186.897 116.850 C 191.543 118.826,191.801 119.409,190.043 123.937 C 188.349 128.300,187.805 129.247,186.405 130.257 C 185.711 130.758,184.799 131.431,184.378 131.753 C 183.957 132.076,183.107 133.312,182.488 134.501 C 181.506 136.390,180.872 137.115,177.464 140.258 C 173.861 143.580,173.488 144.018,172.581 146.002 C 171.347 148.703,170.822 149.185,168.951 149.341 C 165.959 149.589,165.626 146.761,167.489 136.923 C 168.949 129.218,168.893 128.750,166.133 125.586 C 162.549 121.476,161.454 117.861,162.842 114.713 C 163.485 113.253,163.525 112.016,162.985 110.235 C 162.785 109.573,162.876 109.517,166.783 107.875 C 168.308 107.235,172.220 107.326,173.933 108.041 M245.394 124.239 C 246.319 125.559,245.373 130.176,243.992 131.081 C 242.627 131.975,241.867 131.176,241.520 128.484 C 241.145 125.573,244.078 122.360,245.394 124.239 M78.486 201.100 C 63.429 204.443,55.456 220.504,59.971 238.402 C 65.301 259.538,94.328 263.582,104.119 244.553 C 106.481 239.963,106.061 238.997,100.966 237.299 C 96.309 235.747,95.577 235.935,94.167 239.045 C 89.221 249.953,75.497 249.349,71.773 238.060 C 70.523 234.271,70.296 225.132,71.339 220.603 C 73.987 209.106,87.572 206.428,93.741 216.186 C 95.494 218.959,95.783 219.020,101.182 217.774 C 105.787 216.710,106.219 215.673,103.912 211.230 C 99.704 203.130,88.842 198.802,78.486 201.100 M260.637 204.727 C 254.546 207.959,253.705 208.940,253.686 212.838 C 253.676 214.756,253.101 215.691,251.569 216.276 C 249.566 217.041,249.194 217.715,249.194 220.578 C 249.194 223.439,249.454 223.943,251.451 224.955 C 253.704 226.097,253.611 225.597,253.770 237.421 C 253.855 243.775,254.035 248.432,254.226 249.194 C 255.536 254.438,259.070 256.693,265.545 256.418 C 270.611 256.202,272.181 255.230,272.178 252.310 C 272.174 248.644,271.512 247.727,268.702 247.498 C 264.802 247.179,264.611 246.618,264.611 235.487 C 264.611 225.927,264.852 225.092,267.610 225.086 C 270.636 225.080,271.619 223.967,271.619 220.543 C 271.619 217.256,271.057 216.563,268.139 216.250 C 264.859 215.899,264.779 215.753,264.611 209.810 C 264.428 203.325,264.092 202.895,260.637 204.727 M130.074 215.588 C 121.945 216.823,116.392 221.545,113.634 229.573 C 112.660 232.407,112.862 240.514,113.985 243.661 C 120.500 261.916,147.870 260.549,152.644 241.731 C 156.471 226.643,144.974 213.326,130.074 215.588 M225.718 215.990 C 224.082 216.431,222.430 217.215,220.743 218.351 C 218.667 219.750,218.039 219.687,216.981 217.976 C 216.167 216.660,215.092 216.295,212.067 216.309 C 206.926 216.333,207.288 214.837,207.288 236.035 C 207.288 257.446,206.795 255.641,212.645 255.641 C 217.996 255.641,217.778 256.027,217.798 246.531 C 217.834 230.090,218.466 227.050,222.278 224.977 C 225.568 223.189,229.333 223.807,230.982 226.407 C 232.238 228.387,232.349 229.543,232.487 242.046 C 232.558 248.521,232.703 254.045,232.810 254.320 C 233.625 256.424,242.353 256.169,242.953 254.024 C 243.444 252.271,243.195 226.473,242.669 224.556 C 240.767 217.625,233.426 213.915,225.718 215.990 M293.964 215.986 C 293.381 216.200,292.177 216.885,291.289 217.508 C 289.299 218.903,289.206 218.904,287.704 217.519 L 286.488 216.398 283.133 216.398 C 279.992 216.398,279.729 216.441,278.993 217.074 L 278.206 217.751 278.130 235.833 L 278.054 253.914 278.736 254.708 L 279.419 255.501 283.360 255.501 C 289.044 255.501,288.534 256.514,288.755 244.772 C 289.082 227.352,290.103 224.996,297.109 225.493 C 300.331 225.722,300.601 225.582,301.983 222.980 C 303.798 219.561,304.349 220.234,308.308 230.702 C 309.909 234.937,311.972 240.357,312.892 242.747 C 317.462 254.617,317.739 255.666,316.858 257.773 C 315.406 261.248,313.520 262.602,309.686 262.919 C 305.953 263.229,305.216 264.330,306.120 268.251 C 306.643 270.520,307.848 271.293,311.227 271.527 C 319.912 272.127,324.702 268.436,328.201 258.444 C 329.718 254.113,332.453 246.612,340.035 225.990 C 343.556 216.410,343.524 216.288,337.455 216.288 C 332.242 216.289,332.802 215.534,328.530 228.311 C 323.253 244.091,323.676 244.091,318.318 228.308 C 313.881 215.243,315.153 216.584,307.002 216.373 C 303.387 216.280,300.207 216.068,299.651 215.883 C 298.343 215.448,295.279 215.503,293.964 215.986 M163.576 216.380 C 160.871 216.938,160.826 217.227,160.966 232.936 C 161.087 246.513,161.127 246.878,162.902 250.545 C 165.883 256.701,175.795 258.411,182.901 253.995 C 185.641 252.292,186.241 252.288,187.108 253.963 C 187.842 255.382,188.866 255.702,192.349 255.595 C 197.446 255.439,197.116 256.906,197.003 234.898 C 196.898 214.702,197.388 216.373,191.567 216.366 C 185.907 216.359,186.164 215.707,186.032 230.413 C 185.922 242.769,185.845 243.345,184.028 245.468 C 181.350 248.596,176.104 249.035,173.590 246.340 C 172.051 244.690,171.993 244.163,171.901 230.974 C 171.810 218.018,171.758 217.507,170.452 216.831 C 169.545 216.362,165.081 216.069,163.576 216.380 M136.967 225.257 C 144.375 228.762,144.251 243.277,136.783 246.886 C 129.006 250.645,122.005 242.307,124.295 232.014 C 125.674 225.813,131.536 222.688,136.967 225.257 " stroke="none" fill="#3387c1" fill-rule="evenodd"></path><path id="path1" d="M0.000 140.154 L 0.000 280.308 200.000 280.308 L 400.000 280.308 400.000 140.154 L 400.000 0.000 200.000 0.000 L 0.000 0.000 0.000 140.154 M206.844 14.303 C 228.799 16.247,249.774 29.367,261.624 48.568 C 266.684 56.767,266.731 58.097,261.954 57.826 L 259.058 57.662 257.505 59.130 C 255.901 60.647,254.836 61.088,252.742 61.101 C 252.149 61.104,250.383 61.544,248.817 62.077 C 246.365 62.913,245.543 63.059,242.887 63.127 L 239.804 63.207 236.440 61.718 C 230.292 58.997,225.481 59.933,222.489 64.433 C 221.775 65.506,220.675 66.799,220.044 67.306 C 217.704 69.187,217.250 70.998,218.513 73.415 C 219.365 75.043,219.244 75.922,218.028 76.945 C 216.428 78.292,214.837 77.666,213.221 75.056 C 212.033 73.137,210.734 73.075,209.540 74.879 C 208.220 76.873,208.260 77.749,209.741 79.277 C 212.508 82.133,212.646 83.877,210.231 85.510 C 208.488 86.690,208.127 88.027,208.851 90.632 C 209.263 92.116,208.960 92.829,206.466 96.251 C 201.887 102.535,201.711 105.759,205.718 109.941 C 208.088 112.413,208.823 112.675,212.893 112.494 C 217.463 112.291,217.958 112.599,220.178 117.029 L 221.864 120.392 221.788 123.914 C 221.687 128.576,223.779 135.743,225.792 137.635 C 228.858 140.515,234.731 136.554,236.575 130.361 C 237.046 128.778,237.378 128.250,238.680 127.007 C 240.361 125.402,240.659 124.726,240.388 123.125 C 239.601 118.469,239.794 117.817,242.904 114.646 C 245.444 112.056,246.212 110.498,245.944 108.478 C 245.722 106.803,245.996 106.395,248.182 105.150 C 249.883 104.181,250.818 103.227,251.921 101.331 C 254.092 97.602,259.023 100.036,261.173 105.900 C 262.618 109.839,265.716 111.504,265.738 108.353 C 265.751 106.599,267.824 103.714,269.072 103.714 C 270.073 103.714,269.745 107.043,268.449 110.031 C 267.916 111.259,267.260 112.957,266.990 113.805 C 266.191 116.318,264.016 120.703,261.627 124.619 C 243.935 153.621,208.018 166.368,175.691 155.116 C 172.478 153.997,170.402 153.002,167.886 151.376 C 166.934 150.761,165.731 150.178,165.211 150.081 C 163.844 149.824,159.401 147.064,155.486 144.038 C 140.604 132.536,130.732 115.675,127.772 96.706 C 127.151 92.729,127.259 79.337,127.928 77.298 C 128.800 74.642,128.876 74.672,131.618 78.771 L 134.073 82.440 134.299 85.120 C 134.635 89.100,135.420 90.854,137.917 93.203 C 138.409 93.665,139.320 94.800,139.943 95.725 C 141.457 97.977,142.249 98.809,144.078 100.071 C 144.926 100.656,146.062 101.600,146.601 102.168 C 147.845 103.478,148.362 103.742,152.554 105.204 C 154.868 106.011,156.623 106.835,157.923 107.726 C 162.061 110.561,162.541 108.927,158.946 104.239 L 157.361 102.172 155.461 102.032 C 153.158 101.862,152.207 101.050,152.207 99.251 C 152.207 96.340,156.149 94.916,160.077 96.408 C 161.832 97.075,162.130 96.974,162.551 95.566 C 162.735 94.955,163.416 93.795,164.067 92.988 C 164.717 92.181,165.899 90.638,166.694 89.559 C 168.926 86.530,170.636 85.214,172.338 85.214 C 172.628 85.214,173.673 84.790,174.660 84.272 C 175.647 83.754,176.833 83.241,177.295 83.132 C 180.843 82.294,179.770 78.584,174.509 73.497 C 171.133 70.233,171.225 70.473,172.548 68.330 C 174.751 64.759,173.119 61.707,167.300 58.517 C 163.374 56.365,162.766 55.241,164.256 52.891 C 165.398 51.090,166.789 50.405,167.744 51.173 C 168.116 51.472,168.863 52.072,169.404 52.506 C 170.163 53.114,170.941 53.384,172.811 53.687 C 176.659 54.310,177.512 55.087,178.499 58.871 C 178.799 60.024,179.324 62.039,179.665 63.350 C 181.482 70.342,184.855 72.773,187.356 68.893 C 189.014 66.320,191.713 64.373,195.472 63.038 C 198.634 61.915,198.809 61.749,200.579 58.163 C 202.164 54.952,202.176 54.911,202.033 52.922 C 201.861 50.516,202.074 49.664,203.206 48.235 C 204.632 46.435,204.359 45.734,202.012 45.161 C 201.269 44.980,200.168 44.520,199.565 44.139 C 196.149 41.983,190.511 41.768,183.617 43.533 C 178.636 44.807,177.296 44.827,172.892 43.690 C 168.933 42.668,166.053 42.671,161.037 43.701 C 155.208 44.898,154.026 45.498,152.562 48.006 C 151.397 49.999,150.723 50.464,149.097 50.393 C 148.108 50.350,147.625 50.501,146.843 51.098 C 145.676 51.988,144.302 52.088,142.837 51.390 C 141.890 50.938,140.922 50.991,137.706 51.671 C 136.596 51.906,137.634 48.916,139.744 45.805 C 154.588 23.911,180.096 11.936,206.844 14.303 M251.027 46.629 C 250.347 47.126,250.703 47.652,251.717 47.652 C 252.731 47.652,253.086 47.126,252.407 46.629 C 252.123 46.421,251.812 46.251,251.717 46.251 C 251.622 46.251,251.311 46.421,251.027 46.629 M224.958 47.823 C 222.115 48.510,221.359 49.725,222.783 51.318 C 223.636 52.273,223.805 52.299,227.141 51.982 C 229.949 51.714,230.506 51.301,230.533 49.459 C 230.565 47.363,228.890 46.872,224.958 47.823 M136.790 53.645 C 136.790 53.857,136.601 54.188,136.370 54.380 C 135.924 54.750,135.823 54.475,136.120 53.702 C 136.329 53.157,136.790 53.117,136.790 53.645 M251.445 54.692 C 248.947 55.689,247.400 58.285,248.753 59.211 C 249.370 59.633,249.759 59.393,250.339 58.234 C 250.667 57.579,251.378 56.581,251.919 56.017 C 253.185 54.696,252.966 54.085,251.445 54.692 M148.961 55.391 C 149.775 55.703,149.417 57.463,148.540 57.463 C 147.637 57.463,146.926 56.087,147.581 55.607 C 148.175 55.173,148.330 55.149,148.961 55.391 M134.799 58.655 C 135.078 59.407,134.723 60.303,133.956 60.781 C 132.872 61.458,132.503 60.381,133.294 58.851 C 133.803 57.867,134.476 57.779,134.799 58.655 M200.265 65.609 C 199.654 66.284,199.902 66.887,201.060 67.545 C 201.940 68.045,203.097 67.721,203.702 66.804 C 204.645 65.377,201.473 64.274,200.265 65.609 M162.463 98.641 C 161.583 99.614,161.531 101.604,162.372 102.154 C 164.108 103.292,169.117 103.643,169.259 102.637 C 169.521 100.785,163.648 97.332,162.463 98.641 M166.783 107.875 C 162.876 109.517,162.785 109.573,162.985 110.235 C 163.525 112.016,163.485 113.253,162.842 114.713 C 161.454 117.861,162.549 121.476,166.133 125.586 C 168.893 128.750,168.949 129.218,167.489 136.923 C 165.626 146.761,165.959 149.589,168.951 149.341 C 170.822 149.185,171.347 148.703,172.581 146.002 C 173.488 144.018,173.861 143.580,177.464 140.258 C 180.872 137.115,181.506 136.390,182.488 134.501 C 183.107 133.312,183.957 132.076,184.378 131.753 C 184.799 131.431,185.711 130.758,186.405 130.257 C 187.805 129.247,188.349 128.300,190.043 123.937 C 191.801 119.409,191.543 118.826,186.897 116.850 C 184.495 115.828,183.723 115.335,182.200 113.846 C 181.161 112.830,179.744 111.777,178.902 111.395 C 178.090 111.026,176.879 110.221,176.212 109.605 C 173.959 107.529,169.538 106.718,166.783 107.875 M242.904 124.667 C 241.546 126.017,241.292 126.716,241.520 128.484 C 242.013 132.314,244.011 132.538,245.240 128.901 C 246.657 124.704,245.315 122.271,242.904 124.667 M90.042 201.098 C 95.946 202.227,101.248 206.101,103.912 211.230 C 106.219 215.673,105.787 216.710,101.182 217.774 C 95.783 219.020,95.494 218.959,93.741 216.186 C 87.572 206.428,73.987 209.106,71.339 220.603 C 70.296 225.132,70.523 234.271,71.773 238.060 C 75.497 249.349,89.221 249.953,94.167 239.045 C 95.577 235.935,96.309 235.747,100.966 237.299 C 106.061 238.997,106.481 239.963,104.119 244.553 C 100.885 250.839,96.438 254.437,90.119 255.882 C 69.019 260.706,54.146 242.327,60.113 218.803 C 63.409 205.811,75.938 198.399,90.042 201.098 M263.809 204.320 C 264.449 204.837,264.476 205.022,264.611 209.810 C 264.779 215.753,264.859 215.899,268.139 216.250 C 271.057 216.563,271.619 217.256,271.619 220.543 C 271.619 223.967,270.636 225.080,267.610 225.086 C 264.852 225.092,264.611 225.927,264.611 235.487 C 264.611 246.618,264.802 247.179,268.702 247.498 C 271.512 247.727,272.174 248.644,272.178 252.310 C 272.184 258.303,258.421 258.048,255.329 251.997 C 254.012 249.421,253.919 248.546,253.770 237.421 C 253.611 225.597,253.704 226.097,251.451 224.955 C 249.454 223.943,249.194 223.439,249.194 220.578 C 249.194 217.715,249.566 217.041,251.569 216.276 C 253.101 215.691,253.676 214.756,253.686 212.838 C 253.705 208.940,254.546 207.959,260.637 204.727 C 262.703 203.631,262.923 203.603,263.809 204.320 M138.684 216.136 C 158.438 221.188,158.280 250.790,138.472 255.934 C 124.655 259.523,113.113 250.525,113.107 236.160 C 113.100 221.524,124.588 212.531,138.684 216.136 M234.077 216.009 C 238.784 217.406,241.429 220.036,242.669 224.556 C 243.195 226.473,243.444 252.271,242.953 254.024 C 242.353 256.169,233.625 256.424,232.810 254.320 C 232.703 254.045,232.558 248.521,232.487 242.046 C 232.349 229.543,232.238 228.387,230.982 226.407 C 229.333 223.807,225.568 223.189,222.278 224.977 C 218.466 227.050,217.834 230.090,217.798 246.531 C 217.778 256.027,217.996 255.641,212.645 255.641 C 206.795 255.641,207.288 257.446,207.288 236.035 C 207.288 214.837,206.926 216.333,212.067 216.309 C 215.092 216.295,216.167 216.660,216.981 217.976 C 218.039 219.687,218.667 219.750,220.743 218.351 C 224.646 215.722,229.962 214.788,234.077 216.009 M299.651 215.883 C 300.207 216.068,303.387 216.280,307.002 216.373 C 315.153 216.584,313.881 215.243,318.318 228.308 C 323.676 244.091,323.253 244.091,328.530 228.311 C 332.802 215.534,332.242 216.289,337.455 216.288 C 343.524 216.288,343.556 216.410,340.035 225.990 C 332.453 246.612,329.718 254.113,328.201 258.444 C 324.702 268.436,319.912 272.127,311.227 271.527 C 307.848 271.293,306.643 270.520,306.120 268.251 C 305.216 264.330,305.953 263.229,309.686 262.919 C 313.520 262.602,315.406 261.248,316.858 257.773 C 317.739 255.666,317.462 254.617,312.892 242.747 C 311.972 240.357,309.909 234.937,308.308 230.702 C 304.349 220.234,303.798 219.561,301.983 222.980 C 300.601 225.582,300.331 225.722,297.109 225.493 C 290.103 224.996,289.082 227.352,288.755 244.772 C 288.534 256.514,289.044 255.501,283.360 255.501 L 279.419 255.501 278.736 254.708 L 278.054 253.914 278.130 235.833 L 278.206 217.751 278.993 217.074 C 279.729 216.441,279.992 216.398,283.133 216.398 L 286.488 216.398 287.704 217.519 C 289.206 218.904,289.299 218.903,291.289 217.508 C 293.964 215.632,297.077 215.027,299.651 215.883 M170.452 216.831 C 171.758 217.507,171.810 218.018,171.901 230.974 C 171.993 244.163,172.051 244.690,173.590 246.340 C 176.104 249.035,181.350 248.596,184.028 245.468 C 185.845 243.345,185.922 242.769,186.032 230.413 C 186.164 215.707,185.907 216.359,191.567 216.366 C 197.388 216.373,196.898 214.702,197.003 234.898 C 197.116 256.906,197.446 255.439,192.349 255.595 C 188.866 255.702,187.842 255.382,187.108 253.963 C 186.241 252.288,185.641 252.292,182.901 253.995 C 175.795 258.411,165.883 256.701,162.902 250.545 C 161.127 246.878,161.087 246.513,160.966 232.936 C 160.826 217.227,160.871 216.938,163.576 216.380 C 165.081 216.069,169.545 216.362,170.452 216.831 M131.324 224.500 C 119.760 227.579,122.205 249.052,133.963 247.676 C 145.412 246.336,145.300 225.426,133.839 224.422 C 132.918 224.342,131.787 224.376,131.324 224.500 " stroke="none" fill="#ffffff" fill-rule="evenodd"></path></g></svg>