<svg id="svg" version="1.1" xmlns="http://www.w3.org/2000/svg" xmlns:xlink="http://www.w3.org/1999/xlink" width="400" height="289.1304347826087" viewBox="0, 0, 400,289.1304347826087"><g id="svgg"><path id="path0" d="M181.345 8.991 C 132.901 13.659,98.393 58.426,106.455 106.146 C 114.531 153.943,161.336 185.216,208.178 174.111 C 256.487 162.657,284.329 112.710,268.575 65.759 C 265.982 58.030,264.541 54.944,260.358 48.156 C 243.901 21.448,212.678 5.971,181.345 8.991 M231.552 63.057 C 238.879 64.929,243.846 69.922,245.788 77.368 C 249.273 90.729,243.761 100.411,230.889 103.538 C 221.487 105.823,217.094 106.894,210.846 108.425 C 206.949 109.381,201.547 110.694,198.843 111.343 C 196.139 111.992,192.104 112.994,189.877 113.569 C 187.650 114.145,184.201 114.990,182.213 115.448 C 180.224 115.906,174.432 117.315,169.342 118.580 C 164.252 119.844,158.785 121.169,157.195 121.523 C 144.553 124.336,134.837 118.431,132.130 106.291 C 129.329 93.728,135.113 84.200,147.216 81.439 C 151.309 80.506,162.402 77.768,166.594 76.657 C 168.901 76.046,171.244 75.458,171.800 75.351 C 172.826 75.154,179.689 73.494,193.348 70.137 C 225.950 62.126,227.085 61.916,231.552 63.057 M225.597 66.149 C 225.199 66.219,223.637 66.585,222.126 66.962 C 220.615 67.339,215.734 68.512,211.280 69.568 C 206.826 70.624,201.555 71.930,199.566 72.469 C 197.578 73.008,194.149 73.840,191.946 74.318 C 184.807 75.866,184.815 75.849,187.016 84.975 C 192.948 109.562,192.458 108.171,195.178 108.171 C 196.086 108.171,206.814 105.794,208.798 105.154 C 209.527 104.918,211.685 104.381,213.594 103.960 C 221.860 102.135,232.954 99.174,234.795 98.302 C 242.952 94.435,245.465 84.531,240.788 74.682 C 238.193 69.218,231.030 65.195,225.597 66.149 M159.074 81.598 C 150.085 83.756,148.550 84.168,147.387 84.731 C 143.045 86.832,145.860 90.297,151.068 89.261 C 164.007 86.686,167.938 84.975,166.866 82.386 C 166.079 80.488,164.406 80.319,159.074 81.598 M94.410 207.480 C 92.777 208.221,92.826 207.212,92.909 238.098 L 92.986 266.651 93.645 267.309 C 94.900 268.565,121.294 268.543,125.891 267.282 C 137.890 263.990,143.870 254.305,143.863 238.178 C 143.854 220.565,137.657 210.762,124.740 207.927 C 121.067 207.121,96.015 206.752,94.410 207.480 M120.171 218.548 C 127.986 220.164,130.837 225.290,130.848 237.744 C 130.861 253.450,127.728 257.264,114.534 257.609 C 104.690 257.866,105.569 259.806,105.568 237.807 C 105.568 220.001,105.616 219.216,106.767 218.473 C 107.852 217.774,116.666 217.823,120.171 218.548 M172.151 223.443 C 171.309 223.670,169.632 224.507,168.423 225.304 C 165.772 227.052,166.037 227.040,164.497 225.478 C 162.072 223.019,154.826 223.221,153.855 225.775 C 153.338 227.138,153.499 265.672,154.027 266.693 C 154.660 267.918,155.436 268.113,159.686 268.113 C 166.030 268.113,165.672 268.955,165.835 253.651 C 165.966 241.372,166.064 240.457,167.554 237.545 C 169.049 234.622,171.374 233.655,175.450 234.262 C 178.958 234.784,179.257 234.545,180.799 229.984 C 181.746 227.181,181.808 226.483,181.213 225.332 C 180.231 223.433,175.698 222.488,172.151 223.443 M251.482 223.272 C 246.684 224.307,242.316 227.428,239.739 231.659 C 235.643 238.384,235.338 250.527,239.072 258.165 C 243.746 267.722,254.743 271.095,263.223 265.571 C 267.030 263.092,267.534 263.333,267.534 267.633 C 267.534 273.839,265.334 276.324,259.505 276.702 C 255.972 276.931,254.099 276.374,252.575 274.643 C 250.839 272.671,249.891 272.253,245.999 271.745 C 239.076 270.842,237.800 271.268,238.121 274.373 C 238.906 281.982,246.250 286.122,258.858 286.063 C 270.293 286.009,276.259 282.313,278.727 273.753 C 279.473 271.165,279.680 226.991,278.953 225.585 C 277.630 223.027,270.664 223.138,268.522 225.752 C 267.199 227.367,266.835 227.366,264.066 225.742 C 260.050 223.388,255.281 222.451,251.482 223.272 M189.588 224.040 C 186.918 224.688,186.985 224.238,186.985 241.649 C 186.985 258.089,186.989 258.136,188.714 261.916 C 192.237 269.635,203.501 271.567,212.184 265.942 C 214.703 264.310,214.990 264.318,216.050 266.039 C 217.194 267.899,217.812 268.129,221.681 268.135 C 227.711 268.145,227.171 270.209,227.267 246.770 C 227.368 222.272,227.797 224.080,221.850 223.911 C 214.961 223.715,215.186 223.258,215.182 237.455 C 215.179 249.125,214.937 252.629,213.981 254.852 C 211.927 259.628,204.770 261.409,201.220 258.029 C 199.232 256.136,199.193 255.822,198.998 240.202 C 198.815 225.553,198.790 225.304,197.449 224.433 C 196.820 224.024,190.876 223.727,189.588 224.040 M261.987 233.425 C 270.291 237.575,269.623 254.887,261.048 257.796 C 253.634 260.310,248.270 254.242,248.820 243.962 C 249.308 234.855,255.282 230.075,261.987 233.425 " stroke="none" fill="#3186c3" fill-rule="evenodd"></path><path id="path1" d="M0.000 144.613 L 0.000 289.226 200.000 289.226 L 400.000 289.226 400.000 144.613 L 400.000 0.000 200.000 0.000 L 0.000 0.000 0.000 144.613 M196.426 8.965 C 225.225 11.740,248.118 26.748,263.046 52.639 C 266.082 57.904,269.847 68.407,271.276 75.593 C 284.562 142.429,218.057 196.177,155.439 169.209 C 120.455 154.143,99.936 115.874,106.582 78.091 C 114.125 35.211,153.600 4.839,196.426 8.965 M224.729 62.673 C 223.712 62.844,202.366 67.921,193.348 70.137 C 179.689 73.494,172.826 75.154,171.800 75.351 C 171.244 75.458,168.901 76.046,166.594 76.657 C 162.402 77.768,151.309 80.506,147.216 81.439 C 135.113 84.200,129.329 93.728,132.130 106.291 C 134.837 118.431,144.553 124.336,157.195 121.523 C 158.785 121.169,164.252 119.844,169.342 118.580 C 174.432 117.315,180.224 115.906,182.213 115.448 C 184.201 114.990,187.650 114.145,189.877 113.569 C 192.104 112.994,196.139 111.992,198.843 111.343 C 201.547 110.694,206.949 109.381,210.846 108.425 C 217.094 106.894,221.487 105.823,230.889 103.538 C 243.761 100.411,249.273 90.729,245.788 77.368 C 243.241 67.601,233.955 61.122,224.729 62.673 M229.753 66.375 C 242.508 69.077,247.813 86.137,238.756 95.329 C 235.630 98.502,230.778 100.166,213.594 103.960 C 211.685 104.381,209.527 104.918,208.798 105.154 C 206.814 105.794,196.086 108.171,195.178 108.171 C 192.458 108.171,192.948 109.562,187.016 84.975 C 184.815 75.849,184.807 75.866,191.946 74.318 C 194.149 73.840,197.578 73.008,199.566 72.469 C 201.555 71.930,206.826 70.624,211.280 69.568 C 215.734 68.512,220.615 67.339,222.126 66.962 C 226.697 65.822,227.023 65.796,229.753 66.375 M165.700 81.114 C 167.490 82.040,167.412 84.241,165.546 85.464 C 163.932 86.521,149.339 89.851,147.682 89.541 C 146.596 89.337,145.481 88.212,145.481 87.321 C 145.481 85.438,146.946 84.540,152.043 83.299 C 163.835 80.426,164.243 80.361,165.700 81.114 M124.740 207.927 C 137.657 210.762,143.854 220.565,143.863 238.178 C 143.870 254.305,137.890 263.990,125.891 267.282 C 121.294 268.543,94.900 268.565,93.645 267.309 L 92.986 266.651 92.909 238.098 C 92.826 207.212,92.777 208.221,94.410 207.480 C 96.015 206.752,121.067 207.121,124.740 207.927 M109.328 218.056 C 105.311 218.362,105.568 217.016,105.568 237.807 C 105.569 259.806,104.690 257.866,114.534 257.609 C 127.728 257.264,130.861 253.450,130.848 237.744 C 130.834 221.625,125.579 216.817,109.328 218.056 M177.278 223.279 C 181.574 224.094,182.314 225.503,180.799 229.984 C 179.257 234.545,178.958 234.784,175.450 234.262 C 171.374 233.655,169.049 234.622,167.554 237.545 C 166.064 240.457,165.966 241.372,165.835 253.651 C 165.672 268.955,166.030 268.113,159.686 268.113 C 155.436 268.113,154.660 267.918,154.027 266.693 C 153.499 265.672,153.338 227.138,153.855 225.775 C 154.826 223.221,162.072 223.019,164.497 225.478 C 166.037 227.040,165.772 227.052,168.423 225.304 C 171.595 223.213,174.012 222.660,177.278 223.279 M260.136 223.831 C 261.078 224.167,262.846 225.027,264.066 225.742 C 266.835 227.366,267.199 227.367,268.522 225.752 C 270.664 223.138,277.630 223.027,278.953 225.585 C 279.680 226.991,279.473 271.165,278.727 273.753 C 276.259 282.313,270.293 286.009,258.858 286.063 C 246.250 286.122,238.906 281.982,238.121 274.373 C 237.800 271.268,239.076 270.842,245.999 271.745 C 249.891 272.253,250.839 272.671,252.575 274.643 C 254.099 276.374,255.972 276.931,259.505 276.702 C 265.334 276.324,267.534 273.839,267.534 267.633 C 267.534 263.333,267.030 263.092,263.223 265.571 C 254.743 271.095,243.746 267.722,239.072 258.165 C 235.338 250.527,235.643 238.384,239.739 231.659 C 243.998 224.665,252.899 221.249,260.136 223.831 M197.449 224.433 C 198.790 225.304,198.815 225.553,198.998 240.202 C 199.193 255.822,199.232 256.136,201.220 258.029 C 204.770 261.409,211.927 259.628,213.981 254.852 C 214.937 252.629,215.179 249.125,215.182 237.455 C 215.186 223.258,214.961 223.715,221.850 223.911 C 227.797 224.080,227.368 222.272,227.267 246.770 C 227.171 270.209,227.711 268.145,221.681 268.135 C 217.812 268.129,217.194 267.899,216.050 266.039 C 214.990 264.318,214.703 264.310,212.184 265.942 C 203.501 271.567,192.237 269.635,188.714 261.916 C 186.989 258.136,186.985 258.089,186.985 241.649 C 186.985 224.238,186.918 224.688,189.588 224.040 C 190.876 223.727,196.820 224.024,197.449 224.433 M255.025 232.951 C 246.485 235.998,246.555 255.032,255.116 257.797 C 263.305 260.441,269.669 251.848,267.411 241.195 C 266.018 234.623,260.545 230.981,255.025 232.951 " stroke="none" fill="#ffffff" fill-rule="evenodd"></path></g></svg>